<svg version="1.1" xmlns="http://www.w3.org/2000/svg" viewBox="0 0 899.2522888183594 759.8042297363281" width="1798.5045776367188" height="1519.6084594726562">
  <!-- svg-source:excalidraw -->
  
  <defs>
    <style class="style-fonts">
      @font-face {
        font-family: "Virgil";
        src: url("https://excalidraw.com/Virgil.woff2");
      }
      @font-face {
        font-family: "Cascadia";
        src: url("https://excalidraw.com/Cascadia.woff2");
      }
    </style>
    
  </defs>
  <rect x="0" y="0" width="899.2522888183594" height="759.8042297363281" fill=""></rect><g stroke-linecap="round" transform="translate(10 10) rotate(0 439.6261444091797 369.90211486816406)"><path d="M32 0 M32 0 C200.76 -2.75, 368.77 -3.07, 847.25 0 M32 0 C295.39 -3.26, 559.01 -2.89, 847.25 0 M847.25 0 C866.69 1.63, 879.49 8.77, 879.25 32 M847.25 0 C868.48 -0.69, 881.53 9.25, 879.25 32 M879.25 32 C876.96 194.07, 877.21 355.47, 879.25 707.8 M879.25 32 C877.87 179.49, 877.3 326.86, 879.25 707.8 M879.25 707.8 C878.59 730.54, 868.39 740.29, 847.25 739.8 M879.25 707.8 C877.79 729.45, 867.78 737.92, 847.25 739.8 M847.25 739.8 C529.98 740.82, 211.14 740.08, 32 739.8 M847.25 739.8 C620.56 737.81, 393.75 737.49, 32 739.8 M32 739.8 C11.24 738.34, 1.45 729.82, 0 707.8 M32 739.8 C11.41 739.81, 1.77 727.56, 0 707.8 M0 707.8 C0.82 563.37, -0.72 420.03, 0 32 M0 707.8 C-2.14 550.9, -2.4 393.79, 0 32 M0 32 C-0.24 11.35, 9.27 0.03, 32 0 M0 32 C-0.94 9.57, 9.48 0.53, 32 0" stroke="#e03131" stroke-width="1" fill="none"></path></g><g stroke-linecap="round" transform="translate(30.044891357421875 23.460845947265625) rotate(0 422.51800537109375 43.262115478515625)"><path d="M21.63 0 M21.63 0 C203.86 -1.09, 386.19 -1.64, 823.4 0 M21.63 0 C192.65 -1.11, 362.51 -0.87, 823.4 0 M823.4 0 C836.47 1.87, 844.61 9.14, 845.04 21.63 M823.4 0 C837.77 0.77, 843.75 6.94, 845.04 21.63 M845.04 21.63 C843.92 35.14, 843.7 51.02, 845.04 64.89 M845.04 21.63 C844.71 33.45, 844.54 45.6, 845.04 64.89 M845.04 64.89 C845.1 77.92, 839.45 87.65, 823.4 86.52 M845.04 64.89 C846.52 79.14, 839.43 85.96, 823.4 86.52 M823.4 86.52 C506.63 88.18, 190.87 89.01, 21.63 86.52 M823.4 86.52 C658.44 88.81, 493.32 89.34, 21.63 86.52 M21.63 86.52 C7.78 88.05, -0.04 79.76, 0 64.89 M21.63 86.52 C7.62 86.83, -0.62 77.82, 0 64.89 M0 64.89 C0.26 48.24, -1.2 36.44, 0 21.63 M0 64.89 C0.1 49.97, 0.51 35.18, 0 21.63 M0 21.63 C-0.44 8.07, 6.77 0.34, 21.63 0 M0 21.63 C1.26 8.66, 8.77 0.17, 21.63 0" stroke="#eee" stroke-width="1" fill="none"></path></g><g transform="translate(423.2566833496094 59.428924560546875) rotate(0 30.85997772216797 12.5)"><text x="0" y="0" font-family="Virgil, Segoe UI Emoji" font-size="20px" fill="#eee" text-anchor="start" style="white-space: pre;" direction="ltr" dominant-baseline="text-before-edge">banner</text></g><g stroke-linecap="round" transform="translate(24.039306640625 138.04788208007812) rotate(0 66.19038391113281 247.554931640625)"><path d="M32 0 M32 0 C53.19 1.74, 74.18 1.85, 100.38 0 M32 0 C50.23 -0.51, 65.79 -0.29, 100.38 0 M100.38 0 C121.03 -1.34, 133.94 9.5, 132.38 32 M100.38 0 C120.93 -1.72, 130.34 11.51, 132.38 32 M132.38 32 C134.3 165.92, 133.67 302.67, 132.38 463.11 M132.38 32 C130.29 167.55, 130.06 304.3, 132.38 463.11 M132.38 463.11 C131.64 482.96, 123.25 497.07, 100.38 495.11 M132.38 463.11 C134.27 484.51, 120.39 493.47, 100.38 495.11 M100.38 495.11 C76.07 493.53, 52.83 494.79, 32 495.11 M100.38 495.11 C76.83 495.67, 54.66 495.85, 32 495.11 M32 495.11 C12.33 496.78, 0.22 484.15, 0 463.11 M32 495.11 C12.18 493.52, 2.24 485.31, 0 463.11 M0 463.11 C-0.23 328.57, 0.18 196.75, 0 32 M0 463.11 C-0.47 297.08, 0.14 131.02, 0 32 M0 32 C0.43 9.32, 11.15 -0.54, 32 0 M0 32 C-0.54 9.57, 11.16 -2.04, 32 0" stroke="#2f9e44" stroke-width="1" fill="none"></path></g><g transform="translate(39.589385986328125 351.2511901855469) rotate(0 48.489959716796875 12.5)"><text x="0" y="0" font-family="Virgil, Segoe UI Emoji" font-size="20px" fill="#2f9e44" text-anchor="start" style="white-space: pre;" direction="ltr" dominant-baseline="text-before-edge">navigation</text></g><g stroke-linecap="round" transform="translate(173.81845092773438 138.372314453125) rotate(0 236.34332275390625 244.4405975341797)"><path d="M32 0 M32 0 C183.11 -1.86, 334.38 -1.45, 440.69 0 M32 0 C163.15 -1.66, 294.22 -2.26, 440.69 0 M440.69 0 C463.83 0.96, 473.15 10.71, 472.69 32 M440.69 0 C462.78 1.39, 474.87 12.31, 472.69 32 M472.69 32 C474.84 169.6, 475.15 309.22, 472.69 456.88 M472.69 32 C472.27 120.44, 473 208.69, 472.69 456.88 M472.69 456.88 C474.63 476.79, 461.8 487.87, 440.69 488.88 M472.69 456.88 C474.34 480.44, 463.79 490.71, 440.69 488.88 M440.69 488.88 C320.62 487.19, 200.12 487.83, 32 488.88 M440.69 488.88 C287.85 488.93, 136.02 489.05, 32 488.88 M32 488.88 C10.85 490.79, -0.56 476.94, 0 456.88 M32 488.88 C10.3 490.15, -1.43 476.25, 0 456.88 M0 456.88 C1.08 326, 0.53 196.94, 0 32 M0 456.88 C-0.09 337.96, 0.44 220.34, 0 32 M0 32 C-0.22 10.08, 11.82 -0.92, 32 0 M0 32 C1.07 8.96, 11.02 -0.09, 32 0" stroke="#1971c2" stroke-width="1" fill="none"></path></g><g transform="translate(220.31155395507812 188.59661865234375) rotate(0 19.8599853515625 12.5)"><text x="0" y="0" font-family="Virgil, Segoe UI Emoji" font-size="20px" fill="#1971c2" text-anchor="start" style="white-space: pre;" direction="ltr" dominant-baseline="text-before-edge">main</text></g><g stroke-linecap="round" transform="translate(667.2122497558594 144.8814697265625) rotate(0 102.23211669921875 237.6000213623047)"><path d="M32 0 M32 0 C67.05 1.13, 103.33 0.4, 172.46 0 M32 0 C80.88 0.38, 129.87 -0.02, 172.46 0 M172.46 0 C193.86 -1.43, 203.8 11.24, 204.46 32 M172.46 0 C193.66 0.67, 206.36 9.68, 204.46 32 M204.46 32 C202.9 120.13, 201.93 209.94, 204.46 443.2 M204.46 32 C202.71 142.97, 203.61 254.25, 204.46 443.2 M204.46 443.2 C202.48 463.58, 193.48 475.67, 172.46 475.2 M204.46 443.2 C202.4 466.49, 191.85 476.22, 172.46 475.2 M172.46 475.2 C139.61 477.62, 104.7 477.78, 32 475.2 M172.46 475.2 C117.12 476.93, 61.52 476, 32 475.2 M32 475.2 C8.92 476.28, 0.48 465.16, 0 443.2 M32 475.2 C10.58 475.77, -2.1 462.54, 0 443.2 M0 443.2 C0.61 335.87, -0.42 227.56, 0 32 M0 443.2 C-2.47 337.97, -1.75 233.24, 0 32 M0 32 C-1.52 10.51, 9.21 0.94, 32 0 M0 32 C-1.95 8.58, 11.05 -1.73, 32 0" stroke="#f08c00" stroke-width="1" fill="none"></path></g><g transform="translate(698.9747009277344 199.6171875) rotate(0 67.69993591308594 12.5)"><text x="0" y="0" font-family="Virgil, Segoe UI Emoji" font-size="20px" fill="#f08c00" text-anchor="start" style="white-space: pre;" direction="ltr" dominant-baseline="text-before-edge">complementary</text></g><g stroke-linecap="round" transform="translate(233.52883911132812 273.8209533691406) rotate(0 148.38259887695312 116.84588623046875)"><path d="M32 0 M32 0 C112.11 -0.23, 190.98 -3.02, 264.77 0 M32 0 C121.98 0.67, 213.83 0.3, 264.77 0 M264.77 0 C284.69 1.73, 297.39 11.92, 296.77 32 M264.77 0 C284.64 -1.2, 297.3 11.15, 296.77 32 M296.77 32 C297.22 71.48, 298.87 115.02, 296.77 201.69 M296.77 32 C297.82 94.68, 296.15 156.91, 296.77 201.69 M296.77 201.69 C298.61 224.7, 286.08 231.7, 264.77 233.69 M296.77 201.69 C295.23 225.15, 288.15 234.96, 264.77 233.69 M264.77 233.69 C192.63 235.1, 119.49 234.03, 32 233.69 M264.77 233.69 C213.38 234.57, 162.76 234.6, 32 233.69 M32 233.69 C9.11 233.99, -0.07 222.74, 0 201.69 M32 233.69 C9.97 232.02, -1.24 222.14, 0 201.69 M0 201.69 C2.03 138.44, 1.78 76.6, 0 32 M0 201.69 C-1.99 140, -1.44 78.1, 0 32 M0 32 C1.39 9.85, 9.64 -0.37, 32 0 M0 32 C1.76 10.01, 9.75 -0.45, 32 0" stroke="#2f9e44" stroke-width="1" fill="none"></path></g><g transform="translate(324.2566833496094 368.6747741699219) rotate(0 51.08995056152344 12.5)"><text x="0" y="0" font-family="Virgil, Segoe UI Emoji" font-size="20px" fill="#2f9e44" text-anchor="start" style="white-space: pre;" direction="ltr" dominant-baseline="text-before-edge">application</text></g><g stroke-linecap="round" transform="translate(39.68231201171875 652.6267395019531) rotate(0 406.0033721923828 40.4124755859375)"><path d="M20.21 0 M20.21 0 C212.98 -2.3, 404.45 -2.03, 791.8 0 M20.21 0 C254.56 -0.86, 488.78 -0.65, 791.8 0 M791.8 0 C804.75 0.32, 811.02 5.17, 812.01 20.21 M791.8 0 C805.16 -0.6, 813.94 5.83, 812.01 20.21 M812.01 20.21 C812.35 33.94, 810.37 43.86, 812.01 60.62 M812.01 20.21 C812.52 27.65, 811.63 37.4, 812.01 60.62 M812.01 60.62 C812.34 74.83, 804.28 81.01, 791.8 80.82 M812.01 60.62 C811.06 71.92, 805.94 81.24, 791.8 80.82 M791.8 80.82 C576.24 78.68, 361.61 77.33, 20.21 80.82 M791.8 80.82 C564.94 78.28, 337.48 78.17, 20.21 80.82 M20.21 80.82 C8.47 82.5, -0.09 73.82, 0 60.62 M20.21 80.82 C5.53 80.84, -1.18 74.45, 0 60.62 M0 60.62 C-1.24 45.68, -2.06 32.72, 0 20.21 M0 60.62 C0.73 47.5, -0.78 32.92, 0 20.21 M0 20.21 C-1.2 7.87, 6.16 0.32, 20.21 0 M0 20.21 C1.03 4.77, 6.55 -1.54, 20.21 0" stroke="#eee" stroke-width="1" fill="none"></path></g><g transform="translate(391.7557373046875 680.5392150878906) rotate(0 53.92994689941406 12.5)"><text x="53.92994689941406" y="0" font-family="Virgil, Segoe UI Emoji" font-size="20px" fill="#eee" text-anchor="middle" style="white-space: pre;" direction="ltr" dominant-baseline="text-before-edge">contentinfo</text></g>
  </svg>
