<svg version="1.1" xmlns="http://www.w3.org/2000/svg" viewBox="0 0 635.21875 467.625" width="1270.4375" height="935.25" filter="invert(93%) hue-rotate(180deg)">
  <!-- svg-source:excalidraw -->
  
  <defs>
    <style class="style-fonts">
      @font-face {
        font-family: "Virgil";
        src: url("https://excalidraw.com/Virgil.woff2");
      }
      @font-face {
        font-family: "Cascadia";
        src: url("https://excalidraw.com/Cascadia.woff2");
      }
    </style>
  </defs>
  <g stroke-linecap="round" transform="translate(10 10) rotate(0 46.1640625 77.353515625)"><path d="M5.49 6.1 C5.49 6.1, 5.49 6.1, 5.49 6.1 M5.49 6.1 C5.49 6.1, 5.49 6.1, 5.49 6.1 M0.63 17.78 C3.51 15.57, 6.83 9.2, 13.76 2.68 M0.63 17.78 C3.32 15.33, 5.71 10.58, 13.76 2.68 M0.37 24.17 C3.02 19.35, 9.09 15.23, 20.05 1.53 M0.37 24.17 C6.72 16.83, 14.3 8.74, 20.05 1.53 M0.77 29.82 C4.33 23.11, 11.3 16.82, 25.04 1.89 M0.77 29.82 C9.54 19.43, 18.89 8.91, 25.04 1.89 M0.51 36.21 C9.92 24.32, 22.35 10.41, 30.68 1.5 M0.51 36.21 C8.56 26.3, 16.71 18.4, 30.68 1.5 M0.24 42.61 C9.53 34.74, 16.07 22.66, 35.67 1.86 M0.24 42.61 C13.14 27.56, 25.3 12.26, 35.67 1.86 M0.64 48.26 C15.67 31.35, 30.59 14.69, 40.66 2.22 M0.64 48.26 C15.49 31.64, 30.04 14.52, 40.66 2.22 M0.38 54.65 C12.84 40.53, 22.03 30.97, 46.3 1.82 M0.38 54.65 C12.3 39.42, 26.69 24.63, 46.3 1.82 M0.12 61.05 C12.28 45.1, 27.76 31.91, 51.29 2.18 M0.12 61.05 C17.74 40.6, 35.84 20.54, 51.29 2.18 M0.51 66.69 C13.51 50.67, 24.39 36.4, 56.93 1.79 M0.51 66.69 C18.33 46.71, 37.81 24.43, 56.93 1.79 M0.25 73.09 C27.17 43.53, 47.73 15.46, 61.92 2.15 M0.25 73.09 C18.13 53.14, 35.12 33.94, 61.92 2.15 M0.64 78.74 C29.55 49.42, 53.76 17.62, 67.56 1.75 M0.64 78.74 C23.81 53.22, 46.47 26.91, 67.56 1.75 M0.38 85.13 C18.6 65.33, 34.87 43.56, 72.55 2.12 M0.38 85.13 C20.17 62.24, 40.64 38.93, 72.55 2.12 M0.12 91.53 C27.26 60.95, 48.97 35.12, 77.54 2.48 M0.12 91.53 C21.75 66.8, 41.68 42.23, 77.54 2.48 M0.52 97.17 C30.54 60.19, 60.92 25.08, 81.21 4.34 M0.52 97.17 C23.01 73.14, 43.05 49.8, 81.21 4.34 M0.25 103.57 C23.19 75.37, 49.48 46.44, 85.54 5.46 M0.25 103.57 C25.39 73.4, 51.82 45.01, 85.54 5.46 M-0.01 109.97 C19.79 82.63, 41.35 58.9, 88.56 8.08 M-0.01 109.97 C33.44 71.68, 68.47 32.48, 88.56 8.08 M0.39 115.61 C34.7 77.85, 67.16 41.74, 90.92 11.46 M0.39 115.61 C27.41 83.33, 57.63 50.3, 90.92 11.46 M0.13 122.01 C22.3 98.12, 42.89 71.75, 93.29 14.84 M0.13 122.01 C35.92 79.96, 71.65 39.76, 93.29 14.84 M0.52 127.65 C31.48 92.39, 62.06 54.16, 93.68 20.48 M0.52 127.65 C23.07 102.35, 44.21 78.87, 93.68 20.48 M1.57 132.54 C20.65 111.33, 38.23 88.81, 94.73 25.37 M1.57 132.54 C29.18 101.02, 55.87 69.93, 94.73 25.37 M1.97 138.18 C21.52 117.04, 40.81 92.08, 95.13 31.02 M1.97 138.18 C27.15 107.72, 54.74 75.95, 95.13 31.02 M3.02 143.07 C36.13 106.83, 70.01 67.04, 94.86 37.41 M3.02 143.07 C29.09 113.82, 55.24 84.56, 94.86 37.41 M5.38 146.45 C31.45 120.1, 52.52 89.9, 94.6 43.81 M5.38 146.45 C34.9 111.92, 65.61 78.61, 94.6 43.81 M7.09 150.59 C39.33 112.51, 69.25 75.43, 95 49.45 M7.09 150.59 C42.02 110.74, 76.45 70.75, 95 49.45 M11.42 151.7 C29.54 129.96, 48.55 109.74, 94.74 55.85 M11.42 151.7 C41.9 117.1, 70.28 85.03, 94.74 55.85 M15.09 153.57 C32.09 132.57, 51.88 112.49, 94.47 62.25 M15.09 153.57 C37.7 130.46, 58.44 104.66, 94.47 62.25 M18.77 155.44 C41.22 130.56, 61.15 106.75, 94.87 67.89 M18.77 155.44 C42.8 126.41, 67.94 97.36, 94.87 67.89 M24.41 155.05 C41.33 136.1, 59.39 117.82, 94.61 74.29 M24.41 155.05 C52.52 123.09, 79.2 92.08, 94.61 74.29 M29.4 155.41 C45.68 137.47, 61.58 115.56, 94.35 80.69 M29.4 155.41 C53.39 128.15, 76.79 99.96, 94.35 80.69 M34.38 155.77 C45.44 140.48, 57.33 124.57, 94.74 86.33 M34.38 155.77 C49.09 140.31, 61.79 123.82, 94.74 86.33 M40.03 155.37 C54.87 141.03, 66.99 124.52, 94.48 92.73 M40.03 155.37 C52.63 141.18, 67.7 125.7, 94.48 92.73 M45.01 155.73 C57.56 142.91, 68.43 128.3, 94.87 98.37 M45.01 155.73 C60.83 137.84, 75.47 120.01, 94.87 98.37 M50.66 155.34 C66.55 134.87, 85.3 113.24, 94.61 104.77 M50.66 155.34 C66.88 136.78, 84.4 116.27, 94.61 104.77 M55.64 155.7 C67.36 141, 81.76 127.97, 94.35 111.17 M55.64 155.7 C69.78 139.79, 81.86 125.77, 94.35 111.17 M61.29 155.3 C73.14 144.85, 80.65 131.16, 94.75 116.81 M61.29 155.3 C71.14 145.07, 80.02 135.16, 94.75 116.81 M66.27 155.66 C75.79 143.65, 87.41 132.88, 94.48 123.21 M66.27 155.66 C73.33 147.06, 83.05 136.69, 94.48 123.21 M71.26 156.02 C76.5 151.03, 83.23 144.91, 94.22 129.61 M71.26 156.02 C78.03 147.26, 84.96 140.89, 94.22 129.61 M76.9 155.63 C80.71 152.58, 86.25 146.88, 92.65 137.51 M76.9 155.63 C82.01 149.26, 87.65 145.31, 92.65 137.51" stroke="#ffec99" stroke-width="0.5" fill="none"></path><path d="M23.08 0 M23.08 0 C37.54 1.16, 52.59 -1.43, 69.25 0 M23.08 0 C35.56 -0.73, 49.03 -0.3, 69.25 0 M69.25 0 C83.47 0.5, 91.57 7.82, 92.33 23.08 M69.25 0 C86.59 0.54, 91.48 5.86, 92.33 23.08 M92.33 23.08 C92.98 53.62, 93.42 79.82, 92.33 131.63 M92.33 23.08 C91.69 57.67, 92.15 93.31, 92.33 131.63 M92.33 131.63 C92.16 147.05, 83.96 156.09, 69.25 154.71 M92.33 131.63 C92.78 147.43, 86.87 154.98, 69.25 154.71 M69.25 154.71 C51.08 153.12, 37.71 155.45, 23.08 154.71 M69.25 154.71 C55.5 154.44, 39.8 154.15, 23.08 154.71 M23.08 154.71 C9.26 154.39, -0.19 145.28, 0 131.63 M23.08 154.71 C5.81 155.02, -0.77 145.92, 0 131.63 M0 131.63 C-0.71 91.75, 2.38 55.37, 0 23.08 M0 131.63 C-1.55 106.33, -0.08 81.74, 0 23.08 M0 23.08 C1.52 6.83, 7.38 1, 23.08 0 M0 23.08 C0.62 7.15, 8.48 -0.18, 23.08 0" stroke="#1971c2" stroke-width="1" fill="none"></path></g><g transform="translate(30.81457443538403 24.52529039795411) rotate(357.8698864665243 24.709991455078125 59.306642725188794)"><text x="0" y="0" font-family="Cascadia, Segoe UI Emoji" font-size="24.711101135495326px" fill="#1e1e1e" text-anchor="start" style="white-space: pre;" direction="ltr" dominant-baseline="text-before-edge">JS</text><text x="0" y="29.65332136259439" font-family="Cascadia, Segoe UI Emoji" font-size="24.711101135495326px" fill="#1e1e1e" text-anchor="start" style="white-space: pre;" direction="ltr" dominant-baseline="text-before-edge">动态</text><text x="0" y="59.30664272518878" font-family="Cascadia, Segoe UI Emoji" font-size="24.711101135495326px" fill="#1e1e1e" text-anchor="start" style="white-space: pre;" direction="ltr" dominant-baseline="text-before-edge">类型</text><text x="0" y="88.95996408778316" font-family="Cascadia, Segoe UI Emoji" font-size="24.711101135495326px" fill="#1e1e1e" text-anchor="start" style="white-space: pre;" direction="ltr" dominant-baseline="text-before-edge">检查</text></g><g stroke-linecap="round" transform="translate(140.05078125 16.33984375) rotate(0 61.4296875 28.271484375)"><path d="M1.9 5.63 C1.9 5.63, 1.9 5.63, 1.9 5.63 M1.9 5.63 C1.9 5.63, 1.9 5.63, 1.9 5.63 M1.64 12.02 C2.33 9.47, 4.73 8.75, 8.2 4.48 M1.64 12.02 C3.49 10.09, 4.97 8.02, 8.2 4.48 M1.38 18.42 C3.93 15.64, 9.16 13.14, 15.81 1.82 M1.38 18.42 C5.5 12.14, 10.2 8.02, 15.81 1.82 M1.77 24.06 C10.38 17.45, 14.42 6.48, 21.45 1.42 M1.77 24.06 C5.91 19.87, 8.93 14.85, 21.45 1.42 M1.51 30.46 C9.61 20.41, 19.93 9.82, 26.44 1.78 M1.51 30.46 C10.4 21.61, 18.14 12.58, 26.44 1.78 M1.9 36.1 C6.95 26.73, 14.36 19.76, 32.08 1.39 M1.9 36.1 C10.26 25.48, 19.08 16.58, 32.08 1.39 M1.64 42.5 C14.25 28.71, 22.06 16.8, 37.07 1.75 M1.64 42.5 C9.72 32.2, 18.39 22.29, 37.07 1.75 M2.69 47.39 C13.73 34.46, 26.17 21.06, 42.71 1.35 M2.69 47.39 C16.07 32.51, 28.16 16.01, 42.71 1.35 M3.74 52.28 C21.9 33.03, 35.83 12.5, 47.7 1.71 M3.74 52.28 C19.76 34.32, 34.4 15.56, 47.7 1.71 M6.11 55.66 C20.58 39.27, 31.59 26.12, 53.34 1.32 M6.11 55.66 C19.51 39.09, 33.93 24.67, 53.34 1.32 M11.09 56.02 C21.17 44.14, 33.55 29.34, 58.33 1.68 M11.09 56.02 C29.55 36.61, 47.29 14.84, 58.33 1.68 M15.42 57.13 C33.64 34.59, 50.79 16.11, 63.97 1.28 M15.42 57.13 C32.71 36.7, 49.81 15.94, 63.97 1.28 M20.41 57.49 C32.12 42.11, 43.23 28.15, 68.96 1.64 M20.41 57.49 C33.85 42.66, 45.2 27.15, 68.96 1.64 M26.05 57.1 C33.81 46.36, 47.06 32.67, 74.6 1.25 M26.05 57.1 C41.45 39.71, 58.52 21.08, 74.6 1.25 M31.04 57.46 C46.84 40.54, 65.98 21.15, 79.59 1.61 M31.04 57.46 C43.35 42.97, 56.73 27.55, 79.59 1.61 M36.68 57.06 C50.82 38.78, 69.67 19.35, 84.58 1.97 M36.68 57.06 C54.69 35.14, 73.92 12.97, 84.58 1.97 M41.67 57.42 C58.56 40.91, 70.28 23.28, 90.22 1.58 M41.67 57.42 C53.3 43.33, 65.7 30.61, 90.22 1.58 M46.66 57.78 C60.22 39.17, 74.79 21.5, 95.21 1.94 M46.66 57.78 C62.22 39.85, 79.29 20.89, 95.21 1.94 M52.3 57.39 C67.21 40.66, 81.96 20.1, 100.85 1.54 M52.3 57.39 C70.82 36.87, 87.59 16.28, 100.85 1.54 M57.29 57.75 C69.04 41.92, 79.88 29.4, 105.84 1.9 M57.29 57.75 C77.02 36.94, 95.08 15.32, 105.84 1.9 M62.93 57.36 C73.23 44.07, 84.22 33.61, 110.82 2.26 M62.93 57.36 C81.4 34.84, 100.29 13.52, 110.82 2.26 M67.92 57.72 C76.8 45.56, 88.6 32.27, 115.15 3.38 M67.92 57.72 C83.13 40.37, 99.32 22.21, 115.15 3.38 M73.56 57.32 C81.21 46.55, 91.45 35.17, 119.49 4.49 M73.56 57.32 C91.73 35.67, 111.21 15.95, 119.49 4.49 M78.55 57.68 C90.13 41.78, 105.29 26.85, 122.5 7.12 M78.55 57.68 C95.51 38.43, 112.2 19.32, 122.5 7.12 M84.19 57.29 C96.6 41.22, 111.64 26.33, 123.55 12 M84.19 57.29 C94.98 45.44, 104.44 33.99, 123.55 12 M89.18 57.65 C99.84 47.19, 109.66 33.65, 123.95 17.65 M89.18 57.65 C101.47 43.26, 113.77 30.11, 123.95 17.65 M94.82 57.25 C102.33 48.64, 110.57 38.33, 123.69 24.04 M94.82 57.25 C104.49 45.1, 115.51 32.4, 123.69 24.04 M99.81 57.61 C102.86 52.13, 110.96 45.35, 124.08 29.69 M99.81 57.61 C106.6 50.18, 113.88 41.22, 124.08 29.69 M105.45 57.22 C111.67 47.72, 120.9 40.03, 123.82 36.09 M105.45 57.22 C110.23 51.68, 116.85 44.17, 123.82 36.09 M110.44 57.58 C112.69 54.17, 116.36 52.43, 123.56 42.48 M110.44 57.58 C116.32 52.57, 120.89 46.85, 123.56 42.48" stroke="#ffc9c9" stroke-width="0.5" fill="none"></path><path d="M14.14 0 M14.14 0 C42.86 -0.15, 72.31 -1.48, 108.72 0 M14.14 0 C45.61 0.26, 75.26 -0.77, 108.72 0 M108.72 0 C116.71 1.65, 122.42 4.24, 122.86 14.14 M108.72 0 C119.08 -0.39, 121.11 4.49, 122.86 14.14 M122.86 14.14 C121.29 24.13, 121.58 38.24, 122.86 42.41 M122.86 14.14 C123.19 22.38, 123.37 33.18, 122.86 42.41 M122.86 42.41 C124.8 50.92, 116.37 57.61, 108.72 56.54 M122.86 42.41 C121.83 53.15, 119.74 57.3, 108.72 56.54 M108.72 56.54 C87.12 59.43, 68.15 56.71, 14.14 56.54 M108.72 56.54 C70.06 55.01, 34.1 55.55, 14.14 56.54 M14.14 56.54 C3.23 57.23, -0.92 52.63, 0 42.41 M14.14 56.54 C2.65 54.98, 1.2 49.99, 0 42.41 M0 42.41 C0.7 37.16, -0.29 29.15, 0 14.14 M0 42.41 C-0.59 35.02, 0.92 28.99, 0 14.14 M0 14.14 C1.49 3.53, 2.82 0.78, 14.14 0 M0 14.14 C-0.63 2.75, 5.52 -0.29, 14.14 0" stroke="#f08c00" stroke-width="1" fill="none"></path></g><g transform="translate(171.48046875 32.611328125) rotate(0 30 12)"><text x="30" y="0" font-family="Cascadia, Segoe UI Emoji" font-size="20px" fill="#1e1e1e" text-anchor="middle" style="white-space: pre;" direction="ltr" dominant-baseline="text-before-edge">编译时</text></g><g stroke-linecap="round" transform="translate(302.015625 14.59765625) rotate(0 154.6640625 27.892578125)"><path d="M3.71 3.23 C3.71 3.23, 3.71 3.23, 3.71 3.23 M3.71 3.23 C3.71 3.23, 3.71 3.23, 3.71 3.23 M3.45 9.62 C5.24 8.21, 6.99 5.22, 9.36 2.83 M3.45 9.62 C4.33 7.99, 5.76 6.62, 9.36 2.83 M2.53 16.78 C5.72 11.23, 12.75 6.01, 15.65 1.68 M2.53 16.78 C6.42 10.81, 11.28 5.84, 15.65 1.68 M2.93 22.42 C10.14 12.87, 17.88 6.56, 21.3 1.29 M2.93 22.42 C7.9 16.85, 12.63 12.89, 21.3 1.29 M3.32 28.06 C12.06 17.29, 17.24 12, 26.28 1.65 M3.32 28.06 C7.81 21.93, 11.68 17.56, 26.28 1.65 M3.06 34.46 C13.35 21.77, 22.11 10.02, 31.93 1.25 M3.06 34.46 C8.95 26.28, 16.4 19.32, 31.93 1.25 M3.46 40.1 C11.09 30.75, 22.51 18.48, 36.91 1.61 M3.46 40.1 C16.01 26.55, 27.16 12.8, 36.91 1.61 M1.23 48.77 C15.86 35.08, 26.17 20.02, 42.56 1.22 M1.23 48.77 C15.13 31.57, 30.86 16.76, 42.56 1.22 M4.24 51.39 C19.95 31.71, 35.03 14.44, 47.54 1.58 M4.24 51.39 C18.46 33.75, 33.32 16.64, 47.54 1.58 M6.61 54.77 C17.67 40.02, 26.97 26.73, 52.53 1.94 M6.61 54.77 C23.42 36.82, 38.89 17.45, 52.53 1.94 M10.94 55.88 C28.38 39.32, 43.59 21.04, 58.17 1.55 M10.94 55.88 C22.82 44.68, 33.23 31.56, 58.17 1.55 M16.58 55.49 C31.72 39.52, 44.59 23.8, 63.16 1.91 M16.58 55.49 C32.94 37.88, 48.56 20.26, 63.16 1.91 M21.57 55.85 C35.98 38.21, 49.8 23.32, 68.8 1.51 M21.57 55.85 C38.03 36.39, 53.79 18.49, 68.8 1.51 M26.56 56.21 C41.05 39.33, 58.39 20.85, 73.79 1.87 M26.56 56.21 C42.79 36, 59.71 17.41, 73.79 1.87 M32.2 55.82 C50.05 37.32, 66.22 19.63, 79.43 1.48 M32.2 55.82 C50.21 35.07, 66.46 16.67, 79.43 1.48 M37.19 56.18 C51.39 38.68, 65.69 20.83, 84.42 1.84 M37.19 56.18 C45.49 44.45, 55.64 35.33, 84.42 1.84 M42.83 55.78 C59.19 39.02, 73.81 20.1, 90.07 1.44 M42.83 55.78 C54.76 41.38, 68.2 28.01, 90.07 1.44 M47.82 56.14 C61.82 38.2, 77.98 18.68, 95.05 1.8 M47.82 56.14 C58.9 43.43, 69.5 30.57, 95.05 1.8 M53.46 55.75 C63.1 46.03, 71.29 31.72, 100.7 1.41 M53.46 55.75 C68.82 38.07, 83.89 21.71, 100.7 1.41 M58.45 56.11 C67.56 45.45, 80.81 32, 105.68 1.77 M58.45 56.11 C75.28 36.89, 92.69 17.1, 105.68 1.77 M64.09 55.71 C75.13 42.93, 86.49 30.36, 111.33 1.37 M64.09 55.71 C78.41 39.62, 93.11 22.88, 111.33 1.37 M69.08 56.07 C83.48 38.67, 98.61 22.49, 116.31 1.73 M69.08 56.07 C82.56 41.12, 94.59 26.33, 116.31 1.73 M74.72 55.68 C90.69 37.35, 109.02 17.12, 121.96 1.34 M74.72 55.68 C89.29 38.71, 103.39 24.03, 121.96 1.34 M79.71 56.04 C91.41 41.99, 102.03 27, 126.94 1.7 M79.71 56.04 C97.33 37.34, 114.01 16.79, 126.94 1.7 M85.35 55.64 C100.28 40.28, 112.16 25.24, 132.59 1.3 M85.35 55.64 C98.3 40.98, 111.99 25.02, 132.59 1.3 M90.34 56 C101.92 45.52, 109.66 29.75, 137.57 1.66 M90.34 56 C101.35 43.9, 112.86 31.92, 137.57 1.66 M95.98 55.61 C113.68 37.85, 129.75 18.08, 142.56 2.02 M95.98 55.61 C113.03 36.44, 129.47 16.47, 142.56 2.02 M100.97 55.97 C118.7 36.65, 132.83 16.89, 148.2 1.63 M100.97 55.97 C119.56 35.12, 136.47 14.41, 148.2 1.63 M106.61 55.57 C122.99 33.41, 141.73 15.11, 153.19 1.99 M106.61 55.57 C121.31 37.03, 136.58 21.31, 153.19 1.99 M111.6 55.93 C131.66 33.89, 150.48 14.61, 158.83 1.59 M111.6 55.93 C128.8 37.24, 144.54 19.47, 158.83 1.59 M117.24 55.54 C127.27 39.56, 139.68 28.96, 163.82 1.95 M117.24 55.54 C130.2 40.8, 142.79 24.73, 163.82 1.95 M122.23 55.9 C140.9 35.55, 156.85 18.61, 169.46 1.56 M122.23 55.9 C136.37 39.53, 150.05 23.56, 169.46 1.56 M127.21 56.26 C143.69 33.25, 163.7 13.83, 174.45 1.92 M127.21 56.26 C137.89 45.05, 147.73 33.05, 174.45 1.92 M132.86 55.86 C144.77 42.27, 156.67 30.12, 180.09 1.53 M132.86 55.86 C147.28 39.58, 159.91 22.57, 180.09 1.53 M137.84 56.22 C150.73 37.3, 166.36 20.88, 185.08 1.89 M137.84 56.22 C149.85 41.48, 162.66 27.69, 185.08 1.89 M143.49 55.83 C156.14 43.2, 170.3 28.65, 190.72 1.49 M143.49 55.83 C155.54 42.35, 167.11 29.42, 190.72 1.49 M148.47 56.19 C157.14 45.15, 169.25 32.67, 195.71 1.85 M148.47 56.19 C158.02 44.24, 168.97 33.11, 195.71 1.85 M154.12 55.8 C167.95 38.86, 183.56 21.94, 201.35 1.46 M154.12 55.8 C167.42 39.7, 181.98 23.34, 201.35 1.46 M159.1 56.16 C171.61 44.19, 178.99 33.22, 206.34 1.82 M159.1 56.16 C168.99 43.21, 178.83 31.03, 206.34 1.82 M164.75 55.76 C176.05 43.02, 184.81 31.64, 211.98 1.42 M164.75 55.76 C176.77 40.56, 190.03 27.14, 211.98 1.42 M169.73 56.12 C178.7 44.02, 190.56 33.57, 216.97 1.78 M169.73 56.12 C183.04 42.08, 196.69 25.3, 216.97 1.78 M175.38 55.73 C188.35 42.28, 201.64 25.65, 222.61 1.39 M175.38 55.73 C184.93 44.67, 195.42 33.86, 222.61 1.39 M180.36 56.09 C191.92 43.75, 206.56 26.7, 227.6 1.75 M180.36 56.09 C195.07 38.67, 211 18.93, 227.6 1.75 M186.01 55.69 C196.25 45.5, 208.28 31.53, 232.59 2.11 M186.01 55.69 C198.28 42.42, 209.64 30.14, 232.59 2.11 M190.99 56.05 C208.24 36.91, 227.04 13.92, 238.23 1.71 M190.99 56.05 C200.14 45.66, 209.02 34.12, 238.23 1.71 M196.64 55.66 C212.98 34.9, 229.78 16.36, 243.22 2.07 M196.64 55.66 C212.27 38.16, 227.93 19.25, 243.22 2.07 M201.62 56.02 C219.41 33.45, 238.59 11.14, 248.86 1.68 M201.62 56.02 C214.51 43.04, 224.86 28.78, 248.86 1.68 M207.27 55.62 C218.67 41.72, 227.82 28.45, 253.85 2.04 M207.27 55.62 C222.11 37.12, 239.98 19.34, 253.85 2.04 M212.25 55.98 C223.19 41.69, 237.23 27.67, 259.49 1.64 M212.25 55.98 C226.05 39.61, 240.04 23.74, 259.49 1.64 M217.24 56.34 C231.81 42.25, 244.35 29.05, 264.48 2 M217.24 56.34 C232.82 38.55, 246.72 21.73, 264.48 2 M222.88 55.95 C239.72 37.75, 253.51 18.26, 270.12 1.61 M222.88 55.95 C237.29 40.17, 249.51 23.96, 270.12 1.61 M227.87 56.31 C247.34 36.76, 266.31 13.96, 275.11 1.97 M227.87 56.31 C238.73 44.69, 248.7 31.1, 275.11 1.97 M233.51 55.91 C250.11 37.72, 264.53 20.07, 280.75 1.58 M233.51 55.91 C246.91 39.6, 260.47 23.96, 280.75 1.58 M238.5 56.27 C249.2 41.69, 263.48 27.62, 285.74 1.94 M238.5 56.27 C249.43 44.9, 259.63 31.89, 285.74 1.94 M244.14 55.88 C260.74 39.41, 276.81 17.59, 291.38 1.54 M244.14 55.88 C256.42 39.77, 270.3 26.24, 291.38 1.54 M249.13 56.24 C260.37 44.65, 273.91 26.9, 296.37 1.9 M249.13 56.24 C267.65 35.5, 287.08 13.39, 296.37 1.9 M254.77 55.85 C273.25 35.29, 289.84 12.2, 301.35 2.26 M254.77 55.85 C267.51 41.77, 280.48 26.27, 301.35 2.26 M259.76 56.21 C274.22 41.26, 285.42 25.17, 305.03 4.13 M259.76 56.21 C270.63 45.37, 280.14 32.83, 305.03 4.13 M265.4 55.81 C278.97 39.55, 292.32 21.44, 308.7 6 M265.4 55.81 C276.34 43.13, 287.97 29.25, 308.7 6 M270.39 56.17 C284.68 37, 302.92 20.02, 310.41 10.13 M270.39 56.17 C281.75 44.05, 291.47 30.77, 310.41 10.13 M276.03 55.78 C287.69 42.57, 299.53 28.08, 310.81 15.78 M276.03 55.78 C287.51 43.29, 297.45 30.83, 310.81 15.78 M281.02 56.14 C289.25 47.39, 299.36 36.47, 311.2 21.42 M281.02 56.14 C290.46 44.2, 299.3 33.19, 311.2 21.42 M286.66 55.74 C292.29 50.52, 294.23 44.77, 310.94 27.82 M286.66 55.74 C291.4 49.79, 296.42 44.6, 310.94 27.82 M291.65 56.1 C298.32 50.87, 302.17 45.2, 311.33 33.46 M291.65 56.1 C297.33 49.43, 303.81 42.72, 311.33 33.46 M296.64 56.46 C299.59 53.77, 304.66 50.05, 311.07 39.86 M296.64 56.46 C300.47 52.13, 302.4 48.07, 311.07 39.86 M302.28 56.07 C304.08 54.18, 305.86 50.9, 310.81 46.26 M302.28 56.07 C304.81 53.28, 306.53 51.47, 310.81 46.26" stroke="#ffc9c9" stroke-width="0.5" fill="none"></path><path d="M13.95 0 M13.95 0 C115.01 2.89, 217.8 0.5, 295.38 0 M13.95 0 C115.53 -1.88, 216.44 -0.83, 295.38 0 M295.38 0 C303.33 -0.03, 311.05 4.17, 309.33 13.95 M295.38 0 C305.72 0.35, 311.28 2.94, 309.33 13.95 M309.33 13.95 C308.64 20.09, 308.43 29.16, 309.33 41.84 M309.33 13.95 C309.64 22.2, 309.79 31.31, 309.33 41.84 M309.33 41.84 C309.51 52.72, 306.31 55.94, 295.38 55.79 M309.33 41.84 C309.19 48.85, 306.3 55.36, 295.38 55.79 M295.38 55.79 C213.08 57.05, 130.88 58.09, 13.95 55.79 M295.38 55.79 C222.61 53.73, 150.23 54.53, 13.95 55.79 M13.95 55.79 C5.1 55.09, 0.45 50.38, 0 41.84 M13.95 55.79 C5.83 57.95, -0.78 52.56, 0 41.84 M0 41.84 C-0.92 34.14, -0.43 29.2, 0 13.95 M0 41.84 C-0.23 35.32, -1.06 29.5, 0 13.95 M0 13.95 C0.92 5.68, 4.93 1.55, 13.95 0 M0 13.95 C-0.43 6.9, 2.84 1.32, 13.95 0" stroke="#f08c00" stroke-width="1" fill="none"></path></g><g transform="translate(326.6796875 30.490234375) rotate(0 130 12)"><text x="130" y="0" font-family="Cascadia, Segoe UI Emoji" font-size="20px" fill="#1e1e1e" text-anchor="middle" style="white-space: pre;" direction="ltr" dominant-baseline="text-before-edge">没有类型信息，不做类型检查</text></g><g stroke-linecap="round" transform="translate(141.2890625 105.3046875) rotate(0 57.072265625 27.349609375)"><path d="M1.77 5.52 C1.77 5.52, 1.77 5.52, 1.77 5.52 M1.77 5.52 C1.77 5.52, 1.77 5.52, 1.77 5.52 M1.51 11.91 C4.35 8.28, 5.61 5.59, 8.07 4.37 M1.51 11.91 C3.85 8.94, 7.05 5.71, 8.07 4.37 M1.91 17.56 C7.81 12.54, 11 3.86, 15.68 1.71 M1.91 17.56 C7.15 12.67, 10.68 6.67, 15.68 1.71 M1.64 23.95 C7.83 18.09, 12.37 12.62, 20.67 2.07 M1.64 23.95 C7.74 16.72, 14.49 8.92, 20.67 2.07 M1.38 30.35 C7.52 24.51, 14.92 15.17, 26.31 1.67 M1.38 30.35 C8.2 23.81, 13.16 15.55, 26.31 1.67 M1.78 35.99 C13.12 24.81, 24.34 10.46, 31.3 2.03 M1.78 35.99 C14.35 22.81, 24.74 10.21, 31.3 2.03 M1.52 42.39 C9.63 30.12, 21.13 20.78, 36.94 1.64 M1.52 42.39 C10.35 33.86, 17.34 26.05, 36.94 1.64 M3.22 46.53 C16.81 27.92, 34.17 10.51, 41.93 2 M3.22 46.53 C14.1 35.25, 23.64 23.41, 41.93 2 M4.27 51.41 C12.84 38.62, 25.23 26.4, 47.57 1.6 M4.27 51.41 C16.82 36.68, 28.49 23, 47.57 1.6 M7.29 54.04 C17.92 40.15, 32.89 23.25, 52.56 1.96 M7.29 54.04 C22.13 37.68, 34.08 22.17, 52.56 1.96 M11.62 55.15 C20.89 45.18, 31.25 31.6, 58.2 1.57 M11.62 55.15 C24.18 40.86, 35.44 27.64, 58.2 1.57 M15.95 56.27 C30.02 41.24, 41.05 24.7, 63.19 1.93 M15.95 56.27 C28.63 41.19, 42.31 26.66, 63.19 1.93 M20.94 56.63 C35.61 38.95, 51.16 23.04, 68.83 1.53 M20.94 56.63 C38.26 37.9, 55.36 18.21, 68.83 1.53 M26.58 56.23 C39.55 40.86, 54.48 24.4, 73.82 1.9 M26.58 56.23 C46.33 33.98, 64.01 12.14, 73.82 1.9 M31.57 56.59 C43.17 43.06, 56.85 24.72, 79.46 1.5 M31.57 56.59 C45.77 39.83, 60.34 22.86, 79.46 1.5 M37.21 56.2 C54.72 38.01, 67.9 19.09, 84.45 1.86 M37.21 56.2 C48.12 42.59, 60.01 29.71, 84.45 1.86 M42.2 56.56 C56.92 35.91, 74.55 17.14, 90.09 1.47 M42.2 56.56 C56.08 41.57, 67.81 26.86, 90.09 1.47 M47.84 56.17 C64.48 37.75, 80.4 17.09, 95.08 1.83 M47.84 56.17 C60.49 42.44, 73.72 28.24, 95.08 1.83 M52.83 56.53 C70.81 35.96, 91.14 11.6, 101.38 0.68 M52.83 56.53 C69.36 38.84, 86.58 18.32, 101.38 0.68 M58.47 56.13 C70.58 45.37, 80.69 34.46, 105.71 1.79 M58.47 56.13 C74.27 40.21, 87.66 21.6, 105.71 1.79 M63.46 56.49 C81.54 37.95, 94.76 16.67, 110.04 2.91 M63.46 56.49 C81.82 34.38, 101.98 13.4, 110.04 2.91 M68.45 56.85 C80.12 45.68, 86.76 35.68, 113.06 5.53 M68.45 56.85 C78.9 44.73, 90.11 30.21, 113.06 5.53 M74.09 56.46 C90.23 38.69, 103.21 20.23, 114.11 10.42 M74.09 56.46 C84.62 45.33, 96.3 33.02, 114.11 10.42 M79.08 56.82 C87.29 45.33, 96.93 37.14, 113.85 16.82 M79.08 56.82 C91.94 41.2, 105.51 26.55, 113.85 16.82 M84.72 56.42 C95.36 44.48, 106.37 34.78, 114.24 22.46 M84.72 56.42 C95.2 43.58, 107.58 31.32, 114.24 22.46 M89.71 56.78 C94.04 50.15, 98.5 44.2, 113.98 28.86 M89.71 56.78 C94.77 51.07, 100.11 45.04, 113.98 28.86 M95.35 56.39 C102.93 48.56, 106.86 40.95, 114.38 34.5 M95.35 56.39 C101.94 48.79, 108.15 41.84, 114.38 34.5 M101.65 55.24 C104.93 50.55, 108.05 47.61, 114.12 40.9 M101.65 55.24 C105.18 51.85, 107.6 48.47, 114.12 40.9 M109.26 52.58 C111.37 50.34, 113.47 48.35, 117.13 43.52 M109.26 52.58 C111.14 50, 112.9 47.74, 117.13 43.52" stroke="#ffc9c9" stroke-width="0.5" fill="none"></path><path d="M13.67 0 M13.67 0 C48.87 -0.97, 84.28 1.38, 100.47 0 M13.67 0 C37.66 -0.07, 61.83 1.12, 100.47 0 M100.47 0 C110.32 -1.02, 113.57 3.74, 114.14 13.67 M100.47 0 C108.88 0.61, 114.17 3.32, 114.14 13.67 M114.14 13.67 C112.57 20.65, 113.09 25.57, 114.14 41.02 M114.14 13.67 C113.93 20.44, 113.77 28.82, 114.14 41.02 M114.14 41.02 C115.93 50.43, 108.06 54.41, 100.47 54.7 M114.14 41.02 C112.98 48.56, 108.67 56.71, 100.47 54.7 M100.47 54.7 C77.71 55.57, 56.47 54.6, 13.67 54.7 M100.47 54.7 C69.42 54.76, 38.01 55.25, 13.67 54.7 M13.67 54.7 C6.48 53.47, 0.71 50.8, 0 41.02 M13.67 54.7 C3.75 52.48, 1.49 48.11, 0 41.02 M0 41.02 C0.82 35.22, 1.77 31.32, 0 13.67 M0 41.02 C0.73 34.36, 0.22 27.29, 0 13.67 M0 13.67 C1.71 6.34, 2.82 -1.15, 13.67 0 M0 13.67 C-1.83 6.53, 3.22 -0.17, 13.67 0" stroke="#e03131" stroke-width="1" fill="none"></path></g><g transform="translate(168.361328125 120.654296875) rotate(0 30 12)"><text x="30" y="0" font-family="Cascadia, Segoe UI Emoji" font-size="20px" fill="#1e1e1e" text-anchor="middle" style="white-space: pre;" direction="ltr" dominant-baseline="text-before-edge">运行时</text></g><g stroke-linecap="round" transform="translate(301.259765625 102.591796875) rotate(0 157.5 25)"><path d="M3.33 2.89 C3.33 2.89, 3.33 2.89, 3.33 2.89 M3.33 2.89 C3.33 2.89, 3.33 2.89, 3.33 2.89 M0.44 12.31 C5.74 9.31, 8.45 4.92, 10.28 0.99 M0.44 12.31 C2.46 9.43, 4.78 7.59, 10.28 0.99 M0.18 18.71 C5.48 10.84, 11.37 4.9, 14.61 2.1 M0.18 18.71 C2.57 14.93, 6.49 10.57, 14.61 2.1 M0.57 24.35 C6.22 16.88, 14.63 8.12, 20.26 1.71 M0.57 24.35 C3.74 19.74, 8.19 14.81, 20.26 1.71 M0.31 30.75 C9.38 17.65, 21.64 8.91, 25.24 2.07 M0.31 30.75 C6.95 21.79, 15.41 13.31, 25.24 2.07 M0.71 36.39 C12.47 22.9, 24.08 9.73, 30.89 1.67 M0.71 36.39 C10.58 24.2, 21.77 12.54, 30.89 1.67 M1.1 42.03 C11.21 31.66, 18.64 21.97, 35.87 2.03 M1.1 42.03 C11.45 31.04, 21.34 18.54, 35.87 2.03 M3.47 45.41 C17.26 29.47, 30.88 15.8, 41.52 1.64 M3.47 45.41 C14.47 32.53, 25.85 19.03, 41.52 1.64 M5.83 48.79 C18.91 31.53, 34.79 13.22, 46.5 2 M5.83 48.79 C13.08 39.42, 23.06 29.21, 46.5 2 M10.16 49.91 C21.89 37.14, 34.61 21.36, 52.15 1.61 M10.16 49.91 C26.3 30.37, 43.87 11.61, 52.15 1.61 M15.15 50.27 C26.24 37.44, 40.98 20.71, 57.13 1.97 M15.15 50.27 C23.7 40.6, 32.67 31.52, 57.13 1.97 M20.79 49.87 C38.15 33.43, 52.99 15.45, 62.12 2.33 M20.79 49.87 C33.03 35.42, 45.96 20.4, 62.12 2.33 M25.78 50.23 C40.85 36.23, 52.47 18.52, 67.76 1.93 M25.78 50.23 C34.72 39.71, 44.36 27.52, 67.76 1.93 M31.42 49.84 C41.88 34.04, 53.77 20.52, 72.75 2.29 M31.42 49.84 C47.83 31.21, 62.28 13.04, 72.75 2.29 M36.41 50.2 C49.81 33.45, 66.34 15.53, 78.39 1.9 M36.41 50.2 C50.9 33.73, 66.24 15.92, 78.39 1.9 M42.05 49.8 C51.69 36.67, 59.5 25.8, 83.38 2.26 M42.05 49.8 C58.04 31.76, 73.65 13.43, 83.38 2.26 M47.04 50.16 C54.61 40.9, 64.6 29.01, 89.02 1.86 M47.04 50.16 C60.24 34.43, 73.95 18.34, 89.02 1.86 M52.02 50.52 C64.38 36.09, 72.25 25.1, 94.01 2.22 M52.02 50.52 C63.75 37.94, 75.71 24.48, 94.01 2.22 M57.67 50.13 C70.17 35.87, 83.11 21.52, 99.65 1.83 M57.67 50.13 C72.09 35.2, 84.82 18.4, 99.65 1.83 M62.65 50.49 C73.58 38.23, 79.25 28.68, 104.64 2.19 M62.65 50.49 C72.75 38.09, 82.81 26.61, 104.64 2.19 M68.3 50.09 C79.83 35.2, 95.94 21.75, 110.28 1.79 M68.3 50.09 C84.25 31.09, 101.6 11.61, 110.28 1.79 M73.28 50.45 C86.93 31.45, 104.24 15.79, 115.27 2.15 M73.28 50.45 C86.89 33.7, 101.13 18.29, 115.27 2.15 M78.93 50.06 C93.9 32.37, 108.11 16.48, 120.91 1.76 M78.93 50.06 C92.34 34.09, 105.59 19.34, 120.91 1.76 M83.91 50.42 C95.25 37.47, 109.88 19.41, 125.9 2.12 M83.91 50.42 C99.12 33.24, 112.57 15.89, 125.9 2.12 M89.56 50.03 C100.85 39.39, 109.42 26.31, 131.54 1.72 M89.56 50.03 C100.59 36.87, 110.88 24.9, 131.54 1.72 M94.54 50.39 C109.13 31.36, 125.12 15.21, 136.53 2.08 M94.54 50.39 C109.49 32.92, 125.98 15.92, 136.53 2.08 M100.19 49.99 C108.27 38.61, 120.78 27.6, 142.17 1.69 M100.19 49.99 C115.47 33.84, 128.94 18.7, 142.17 1.69 M105.17 50.35 C121.28 32.47, 137.29 17.66, 147.16 2.05 M105.17 50.35 C114.66 37.73, 125.68 26.29, 147.16 2.05 M110.82 49.96 C120.65 39.92, 130.45 31.69, 152.15 2.41 M110.82 49.96 C122.34 38.47, 132.51 26.18, 152.15 2.41 M115.8 50.32 C130.41 30.47, 149.46 12.28, 157.79 2.01 M115.8 50.32 C128.8 35.73, 141.72 20.77, 157.79 2.01 M121.45 49.92 C136.62 32.81, 148.76 16.25, 162.78 2.37 M121.45 49.92 C132.45 36.43, 145.06 22.84, 162.78 2.37 M126.43 50.28 C139.7 35.14, 149.84 21.49, 168.42 1.98 M126.43 50.28 C134.99 40.8, 145.17 28.82, 168.42 1.98 M132.08 49.89 C144.24 37.41, 153.58 22.63, 173.41 2.34 M132.08 49.89 C142.58 36.06, 153.73 25.18, 173.41 2.34 M137.06 50.25 C153.76 29.77, 170.15 12.33, 179.05 1.95 M137.06 50.25 C152.16 32.34, 167.55 14.59, 179.05 1.95 M142.71 49.85 C153.01 42.14, 160.35 32.54, 184.04 2.31 M142.71 49.85 C158.6 31.66, 174.65 11.7, 184.04 2.31 M147.69 50.21 C161.95 35.6, 174.8 17.89, 189.68 1.91 M147.69 50.21 C159.68 36.56, 172.51 20.6, 189.68 1.91 M152.68 50.57 C164.46 36.6, 179.8 22.18, 194.67 2.27 M152.68 50.57 C163.9 37.77, 176.24 23.97, 194.67 2.27 M158.32 50.18 C166.95 40.86, 175.59 29.32, 200.31 1.88 M158.32 50.18 C174.26 31.24, 190.06 12.4, 200.31 1.88 M163.31 50.54 C179.16 32.78, 191.79 18.62, 205.3 2.24 M163.31 50.54 C172.64 39.85, 183.36 28.4, 205.3 2.24 M168.95 50.14 C181.77 36.23, 196.15 21.77, 210.94 1.84 M168.95 50.14 C178.04 39.62, 185.32 30.57, 210.94 1.84 M173.94 50.5 C187.57 32.42, 206.2 16.55, 215.93 2.2 M173.94 50.5 C181.91 40.58, 191.24 31.5, 215.93 2.2 M179.58 50.11 C191.84 33.38, 208.64 14.69, 221.57 1.81 M179.58 50.11 C188.47 40.16, 197.76 30.4, 221.57 1.81 M184.57 50.47 C195.42 41.65, 202.86 29.63, 226.56 2.17 M184.57 50.47 C195.68 38.85, 207.28 25.9, 226.56 2.17 M190.21 50.07 C199.86 39.28, 207.96 28.34, 232.2 1.77 M190.21 50.07 C198.83 39.13, 208.76 28.85, 232.2 1.77 M195.2 50.43 C207.22 35.99, 216.55 25.52, 237.19 2.13 M195.2 50.43 C208.59 37, 220.48 21.93, 237.19 2.13 M200.84 50.04 C208.97 39.04, 219.57 28.22, 242.83 1.74 M200.84 50.04 C212.56 36.17, 225.65 20.76, 242.83 1.74 M205.83 50.4 C220.47 35.23, 233.09 21.94, 247.82 2.1 M205.83 50.4 C218.71 35.15, 230.86 19.37, 247.82 2.1 M211.47 50.01 C223.18 38.27, 233.91 22.96, 252.81 2.46 M211.47 50.01 C224.44 34.48, 237.82 19.31, 252.81 2.46 M216.46 50.37 C233.15 32.76, 250.51 12.46, 258.45 2.06 M216.46 50.37 C230.02 34.62, 243.67 19.69, 258.45 2.06 M222.1 49.97 C233.71 36.48, 246.46 24.94, 263.44 2.42 M222.1 49.97 C238.06 31.99, 253.84 12.21, 263.44 2.42 M227.09 50.33 C236.61 38.92, 246.66 27.7, 269.08 2.03 M227.09 50.33 C238.69 36.81, 251.53 21.83, 269.08 2.03 M232.73 49.94 C245.47 31.26, 263.31 14.73, 274.07 2.39 M232.73 49.94 C241.82 39.98, 249.21 29.21, 274.07 2.39 M237.72 50.3 C254.74 32.61, 268.89 16.18, 279.71 2 M237.72 50.3 C254.17 31.78, 270.07 12.22, 279.71 2 M242.71 50.66 C252.99 38.99, 265.22 24.75, 284.7 2.36 M242.71 50.66 C258.56 34.25, 272.78 16.19, 284.7 2.36 M248.35 50.26 C256.34 39.53, 266.29 31.88, 290.34 1.96 M248.35 50.26 C259.31 36.38, 270.71 22.75, 290.34 1.96 M253.34 50.62 C265.16 36.22, 276.78 22.79, 295.33 2.32 M253.34 50.62 C268.27 33.14, 281.77 16.83, 295.33 2.32 M258.98 50.23 C270.05 37.11, 281.17 28.23, 300.97 1.93 M258.98 50.23 C271.93 36.8, 284.33 22.22, 300.97 1.93 M263.97 50.59 C278.59 32.79, 295.75 14.44, 306.61 1.53 M263.97 50.59 C271.76 40.8, 280.92 30.91, 306.61 1.53 M269.61 50.19 C287.21 34.01, 300.01 12.19, 310.29 3.4 M269.61 50.19 C280 38.19, 290.05 27.41, 310.29 3.4 M274.6 50.55 C285.14 36.95, 297.93 26.8, 313.96 5.27 M274.6 50.55 C286.99 37.14, 298.69 23.24, 313.96 5.27 M280.24 50.16 C288.87 39.89, 298.29 30.23, 316.33 8.65 M280.24 50.16 C287.02 41.62, 294.37 33.7, 316.33 8.65 M285.23 50.52 C296.32 38.32, 305.93 28.95, 316.06 15.05 M285.23 50.52 C292.12 42.01, 300.63 32.22, 316.06 15.05 M290.87 50.12 C302.18 40.48, 310.82 25.9, 316.46 20.69 M290.87 50.12 C299.14 41.85, 307.66 32.59, 316.46 20.69 M295.86 50.48 C299.73 44.15, 306.09 39.44, 316.85 26.33 M295.86 50.48 C301.69 42.77, 308.7 34.06, 316.85 26.33 M301.5 50.09 C306.85 44.94, 311.4 37.24, 316.59 32.73 M301.5 50.09 C306.24 42.76, 313.22 37.19, 316.59 32.73 M305.18 51.96 C308.94 49.08, 311.72 45.3, 315.02 40.64 M305.18 51.96 C308.81 48.13, 313.03 42.92, 315.02 40.64" stroke="#ffc9c9" stroke-width="0.5" fill="none"></path><path d="M12.5 0 M12.5 0 C96.61 1.94, 182.26 0.69, 302.5 0 M12.5 0 C96.35 -1.09, 179.53 -0.84, 302.5 0 M302.5 0 C310.32 -1.27, 313.81 2.67, 315 12.5 M302.5 0 C311.91 1.94, 313.19 3.38, 315 12.5 M315 12.5 C314.38 21.93, 313.93 33.57, 315 37.5 M315 12.5 C314.43 18.3, 315.21 27.04, 315 37.5 M315 37.5 C316.81 44.4, 310.64 51.2, 302.5 50 M315 37.5 C312.86 44.34, 309.81 48.44, 302.5 50 M302.5 50 C229.3 51.2, 158.2 51.74, 12.5 50 M302.5 50 C219.27 48.94, 136.3 49.79, 12.5 50 M12.5 50 C2.22 48.31, 1.58 46.15, 0 37.5 M12.5 50 C5.08 51.07, 1.25 45.75, 0 37.5 M0 37.5 C-1.54 31.58, 0.9 21.58, 0 12.5 M0 37.5 C-0.16 29.33, 0.16 21.79, 0 12.5 M0 12.5 C0.96 2.64, 3.38 0.07, 12.5 0 M0 12.5 C-1.39 2.79, 3.54 0.44, 12.5 0" stroke="#e03131" stroke-width="1" fill="none"></path></g><g transform="translate(388.759765625 115.591796875) rotate(0 70 12)"><text x="70" y="0" font-family="Cascadia, Segoe UI Emoji" font-size="20px" fill="#1e1e1e" text-anchor="middle" style="white-space: pre;" direction="ltr" dominant-baseline="text-before-edge">运行时类型检查</text></g><g stroke-linecap="round" transform="translate(11.8662109375 209.001953125) rotate(0 46.1640625 77.353515625)"><path d="M5.49 6.1 C5.49 6.1, 5.49 6.1, 5.49 6.1 M5.49 6.1 C5.49 6.1, 5.49 6.1, 5.49 6.1 M0.63 17.78 C2.28 14.04, 5.18 10.88, 13.76 2.68 M0.63 17.78 C4.35 12.92, 9.83 7.2, 13.76 2.68 M0.37 24.17 C6.39 17.16, 14.19 9.56, 20.05 1.53 M0.37 24.17 C5.32 19.83, 7.62 14.98, 20.05 1.53 M0.77 29.82 C8.76 21.95, 13.71 14.04, 25.04 1.89 M0.77 29.82 C6.86 23.62, 13.03 15.75, 25.04 1.89 M0.51 36.21 C11.35 27.69, 17.43 15.96, 30.68 1.5 M0.51 36.21 C11.33 24.06, 19.88 12.54, 30.68 1.5 M0.24 42.61 C11.53 33.26, 19.02 18.79, 35.67 1.86 M0.24 42.61 C7.34 34.51, 15.39 26.64, 35.67 1.86 M0.64 48.26 C11.15 37.59, 17.82 27.05, 40.66 2.22 M0.64 48.26 C16.81 29.66, 31.82 13.45, 40.66 2.22 M0.38 54.65 C8.93 42.43, 19.74 32.64, 46.3 1.82 M0.38 54.65 C19.3 33.71, 36.79 13.77, 46.3 1.82 M0.12 61.05 C9.67 48.22, 19.55 35.67, 51.29 2.18 M0.12 61.05 C14.66 44.1, 27.82 28.3, 51.29 2.18 M0.51 66.69 C19.23 42.08, 38.67 22.47, 56.93 1.79 M0.51 66.69 C21.8 43.65, 43.79 18.3, 56.93 1.79 M0.25 73.09 C23.14 47.35, 46.36 21.87, 61.92 2.15 M0.25 73.09 C19.54 50.72, 39.19 27.2, 61.92 2.15 M0.64 78.74 C14.08 64.37, 28.66 47.79, 67.56 1.75 M0.64 78.74 C25.55 48.79, 51.34 20.72, 67.56 1.75 M0.38 85.13 C25.59 54.56, 49.71 27.29, 72.55 2.12 M0.38 85.13 C28.97 51.22, 57 20.7, 72.55 2.12 M0.12 91.53 C22.34 69.22, 41.11 42.34, 77.54 2.48 M0.12 91.53 C31.89 55.48, 61.45 20.28, 77.54 2.48 M0.52 97.17 C28.12 64.4, 56.34 34.31, 81.21 4.34 M0.52 97.17 C28.76 63.93, 57.69 31.73, 81.21 4.34 M0.25 103.57 C23.28 77.45, 47.08 46.41, 85.54 5.46 M0.25 103.57 C28.4 72.12, 54.64 41.74, 85.54 5.46 M-0.01 109.97 C29.95 78.2, 54.61 43.97, 88.56 8.08 M-0.01 109.97 C34.1 70.03, 71.01 28.26, 88.56 8.08 M0.39 115.61 C35.75 79.31, 64.48 42.79, 90.92 11.46 M0.39 115.61 C34.5 78.02, 67.26 40.13, 90.92 11.46 M0.13 122.01 C36.83 79.63, 70.41 39.47, 93.29 14.84 M0.13 122.01 C33.04 85.12, 64.42 46.65, 93.29 14.84 M0.52 127.65 C22.28 100.79, 43.47 73.99, 93.68 20.48 M0.52 127.65 C25.79 99.06, 49.18 70.43, 93.68 20.48 M1.57 132.54 C21.19 108.32, 39.25 86.45, 94.73 25.37 M1.57 132.54 C33.53 96.94, 63.93 62.47, 94.73 25.37 M1.97 138.18 C22.1 115, 44.76 88.22, 95.13 31.02 M1.97 138.18 C28.51 106.25, 54.46 75.61, 95.13 31.02 M3.02 143.07 C23.82 119.63, 43.03 98.17, 94.86 37.41 M3.02 143.07 C31.85 109.63, 60.22 77.54, 94.86 37.41 M5.38 146.45 C32.74 116.95, 58.51 85.15, 94.6 43.81 M5.38 146.45 C40.18 104.61, 75.98 63.67, 94.6 43.81 M7.09 150.59 C41.37 109.02, 75.3 70.08, 95 49.45 M7.09 150.59 C37.94 115.25, 69.26 80.51, 95 49.45 M11.42 151.7 C42.14 116.98, 72.32 81.37, 94.74 55.85 M11.42 151.7 C37.25 122.75, 62.94 91.74, 94.74 55.85 M15.09 153.57 C35.29 133.05, 54.44 109.17, 94.47 62.25 M15.09 153.57 C42.28 120.74, 69.46 89.59, 94.47 62.25 M18.77 155.44 C49.06 120.72, 77.27 87.29, 94.87 67.89 M18.77 155.44 C35.73 135.66, 53.48 117.51, 94.87 67.89 M24.41 155.05 C45.74 132.15, 61.86 112.59, 94.61 74.29 M24.41 155.05 C45.68 128.51, 69.61 102.31, 94.61 74.29 M29.4 155.41 C49.04 133.57, 69.21 109.48, 94.35 80.69 M29.4 155.41 C47.8 132.95, 66.38 111.98, 94.35 80.69 M34.38 155.77 C54.49 132.51, 73.85 111.19, 94.74 86.33 M34.38 155.77 C52.58 133.74, 70.18 113.03, 94.74 86.33 M40.03 155.37 C56.8 138.98, 70.35 122.42, 94.48 92.73 M40.03 155.37 C58.52 133.39, 78.27 111.92, 94.48 92.73 M45.01 155.73 C64.37 133.24, 84 113.98, 94.87 98.37 M45.01 155.73 C57.28 140.82, 70.64 124.97, 94.87 98.37 M50.66 155.34 C63.71 143.57, 74.15 128.15, 94.61 104.77 M50.66 155.34 C60.25 144.53, 69.85 133.47, 94.61 104.77 M55.64 155.7 C70.88 139.07, 84.92 121.86, 94.35 111.17 M55.64 155.7 C69.99 139.86, 85.26 122.61, 94.35 111.17 M61.29 155.3 C68.17 143.41, 76.97 133.65, 94.75 116.81 M61.29 155.3 C72.53 142.92, 84.29 127.8, 94.75 116.81 M66.27 155.66 C76.16 147.19, 82.83 136.69, 94.48 123.21 M66.27 155.66 C75.78 144.87, 82.98 135.65, 94.48 123.21 M71.26 156.02 C81.12 145.89, 86.6 137.64, 94.22 129.61 M71.26 156.02 C80.44 145.99, 89.84 135.33, 94.22 129.61 M76.9 155.63 C82.13 151.94, 85.64 146.5, 92.65 137.51 M76.9 155.63 C80.04 151.65, 84.78 146.93, 92.65 137.51" stroke="#ffec99" stroke-width="0.5" fill="none"></path><path d="M23.08 0 M23.08 0 C34 -1.76, 45.68 -1.98, 69.25 0 M23.08 0 C36.77 0.28, 48.73 0.05, 69.25 0 M69.25 0 C84.02 -1.72, 92.47 6.65, 92.33 23.08 M69.25 0 C86.91 0.63, 92.79 8.1, 92.33 23.08 M92.33 23.08 C91.41 46.31, 91.31 64.74, 92.33 131.63 M92.33 23.08 C92.87 54.42, 92.58 84.19, 92.33 131.63 M92.33 131.63 C90.53 145.11, 85.65 154.51, 69.25 154.71 M92.33 131.63 C91.76 148.42, 85.36 156.43, 69.25 154.71 M69.25 154.71 C56.1 156, 39.39 154.61, 23.08 154.71 M69.25 154.71 C52.8 154.26, 36.17 154.27, 23.08 154.71 M23.08 154.71 C9.19 156.37, -0.17 146.79, 0 131.63 M23.08 154.71 C6.34 155.99, 0.23 147.39, 0 131.63 M0 131.63 C-1.8 105.39, -2.03 82.46, 0 23.08 M0 131.63 C1.78 89.56, 0.64 47.95, 0 23.08 M0 23.08 C-0.37 6.71, 9.16 -0.57, 23.08 0 M0 23.08 C2.08 7.47, 5.87 -2.26, 23.08 0" stroke="#1e1e1e" stroke-width="1" fill="none"></path></g><g transform="translate(32.68078537288403 223.5272435229541) rotate(357.8698864665243 24.709991455078125 59.306642725188794)"><text x="0" y="0" font-family="Cascadia, Segoe UI Emoji" font-size="24.711101135495326px" fill="#1e1e1e" text-anchor="start" style="white-space: pre;" direction="ltr" dominant-baseline="text-before-edge">TS</text><text x="0" y="29.65332136259439" font-family="Cascadia, Segoe UI Emoji" font-size="24.711101135495326px" fill="#1e1e1e" text-anchor="start" style="white-space: pre;" direction="ltr" dominant-baseline="text-before-edge">静态</text><text x="0" y="59.30664272518878" font-family="Cascadia, Segoe UI Emoji" font-size="24.711101135495326px" fill="#1e1e1e" text-anchor="start" style="white-space: pre;" direction="ltr" dominant-baseline="text-before-edge">类型</text><text x="0" y="88.95996408778316" font-family="Cascadia, Segoe UI Emoji" font-size="24.711101135495326px" fill="#1e1e1e" text-anchor="start" style="white-space: pre;" direction="ltr" dominant-baseline="text-before-edge">检查</text></g><g stroke-linecap="round" transform="translate(141.9169921875 215.341796875) rotate(0 61.4296875 28.271484375)"><path d="M1.9 5.63 C1.9 5.63, 1.9 5.63, 1.9 5.63 M1.9 5.63 C1.9 5.63, 1.9 5.63, 1.9 5.63 M1.64 12.02 C3.71 10.01, 4.69 7.38, 8.2 4.48 M1.64 12.02 C3.64 9.54, 5.18 7.46, 8.2 4.48 M1.38 18.42 C3.64 12.71, 9.2 10.26, 15.81 1.82 M1.38 18.42 C5.53 12.54, 10.17 8.88, 15.81 1.82 M1.77 24.06 C5.52 20.32, 10.88 13.69, 21.45 1.42 M1.77 24.06 C8.72 16.47, 15.45 8.85, 21.45 1.42 M1.51 30.46 C12.22 18.31, 19.49 8.96, 26.44 1.78 M1.51 30.46 C6.82 24.89, 12.34 19.29, 26.44 1.78 M1.9 36.1 C12.22 23.55, 27 8.63, 32.08 1.39 M1.9 36.1 C11 23.45, 21.34 13.08, 32.08 1.39 M1.64 42.5 C11.93 33.48, 18.63 24.89, 37.07 1.75 M1.64 42.5 C8.05 34.28, 15.85 24.61, 37.07 1.75 M2.69 47.39 C14.86 34.67, 23.67 24.95, 42.71 1.35 M2.69 47.39 C13.97 33.74, 26.34 18.67, 42.71 1.35 M3.74 52.28 C14.96 37.79, 28.72 26.8, 47.7 1.71 M3.74 52.28 C14.85 41.01, 24.95 28.21, 47.7 1.71 M6.11 55.66 C17.25 44.15, 23.34 33.71, 53.34 1.32 M6.11 55.66 C24.03 35.56, 40.34 15.25, 53.34 1.32 M11.09 56.02 C24.15 39.82, 37.19 24.26, 58.33 1.68 M11.09 56.02 C26.96 38.26, 45.07 18.94, 58.33 1.68 M15.42 57.13 C34.82 35.35, 53.33 13.79, 63.97 1.28 M15.42 57.13 C28.17 43.27, 40.52 28.81, 63.97 1.28 M20.41 57.49 C33.1 44.37, 43.9 32.93, 68.96 1.64 M20.41 57.49 C29.94 45.15, 40.74 34.8, 68.96 1.64 M26.05 57.1 C46.97 34.74, 65.27 14.98, 74.6 1.25 M26.05 57.1 C41.96 39.83, 56.86 22.68, 74.6 1.25 M31.04 57.46 C43.18 44.21, 52.87 30.7, 79.59 1.61 M31.04 57.46 C40.61 46.77, 50.18 34.34, 79.59 1.61 M36.68 57.06 C55.37 35.73, 73.59 17.54, 84.58 1.97 M36.68 57.06 C50.06 41.79, 63.52 27.38, 84.58 1.97 M41.67 57.42 C61.66 38.24, 76.64 15.56, 90.22 1.58 M41.67 57.42 C59.34 36.8, 75.89 18.56, 90.22 1.58 M46.66 57.78 C65.51 37.84, 81.24 20.15, 95.21 1.94 M46.66 57.78 C64.9 35.97, 82.04 16.66, 95.21 1.94 M52.3 57.39 C65.16 44.12, 76.54 31.83, 100.85 1.54 M52.3 57.39 C71.38 36.32, 91.75 13.52, 100.85 1.54 M57.29 57.75 C69.92 42.51, 85.48 28.64, 105.84 1.9 M57.29 57.75 C74.14 38.28, 91.72 18.11, 105.84 1.9 M62.93 57.36 C74.26 44.65, 82.94 34.72, 110.82 2.26 M62.93 57.36 C75.23 42.7, 87.92 26.92, 110.82 2.26 M67.92 57.72 C84.43 40.37, 102.82 20.21, 115.15 3.38 M67.92 57.72 C81.43 41.05, 95.82 25.73, 115.15 3.38 M73.56 57.32 C85.19 42.67, 97.57 30.68, 119.49 4.49 M73.56 57.32 C84.9 45.13, 96.12 31.88, 119.49 4.49 M78.55 57.68 C96.6 39.23, 110.75 19.19, 122.5 7.12 M78.55 57.68 C88.63 47.99, 97.26 37.62, 122.5 7.12 M84.19 57.29 C93.11 47.61, 99.37 39.2, 123.55 12 M84.19 57.29 C93.32 47.07, 102.58 37.11, 123.55 12 M89.18 57.65 C100.98 43.96, 112.46 30.52, 123.95 17.65 M89.18 57.65 C101.68 42.84, 115 28.55, 123.95 17.65 M94.82 57.25 C105.32 45.38, 115.46 33.6, 123.69 24.04 M94.82 57.25 C102.29 50.15, 107.53 43.28, 123.69 24.04 M99.81 57.61 C104.06 48.98, 112.31 43.15, 124.08 29.69 M99.81 57.61 C105.82 49.21, 111.6 43.35, 124.08 29.69 M105.45 57.22 C110.3 53.41, 114.58 45.74, 123.82 36.09 M105.45 57.22 C110.05 52.76, 114.56 46.91, 123.82 36.09 M110.44 57.58 C114.2 52.76, 118.64 47.49, 123.56 42.48 M110.44 57.58 C113.36 54.19, 116.29 51.82, 123.56 42.48" stroke="#ffc9c9" stroke-width="0.5" fill="none"></path><path d="M14.14 0 M14.14 0 C37.46 1.82, 62.05 0.39, 108.72 0 M14.14 0 C41.77 -0.72, 69.21 0.04, 108.72 0 M108.72 0 C119.08 -0.35, 124.86 5.73, 122.86 14.14 M108.72 0 C117.19 -0.07, 120.85 4.68, 122.86 14.14 M122.86 14.14 C123.45 21.27, 123.45 29.02, 122.86 42.41 M122.86 14.14 C123.75 23.43, 122.48 34.04, 122.86 42.41 M122.86 42.41 C121.77 50.7, 117.54 57.04, 108.72 56.54 M122.86 42.41 C121.25 53.34, 119.96 56.43, 108.72 56.54 M108.72 56.54 C82.24 58.05, 54.19 58.57, 14.14 56.54 M108.72 56.54 C82.69 55.54, 56.17 54.85, 14.14 56.54 M14.14 56.54 C6.54 57.9, -1.05 53, 0 42.41 M14.14 56.54 C4.4 58.33, 2.04 51.63, 0 42.41 M0 42.41 C-1.52 33.42, -1.22 26.25, 0 14.14 M0 42.41 C-0.37 33.55, -0.2 21.97, 0 14.14 M0 14.14 C-0.12 4.15, 3.41 1.5, 14.14 0 M0 14.14 C1.02 4.57, 4.63 0.28, 14.14 0" stroke="#e03131" stroke-width="1" fill="none"></path></g><g transform="translate(173.3466796875 231.61328125) rotate(0 30 12)"><text x="30" y="0" font-family="Cascadia, Segoe UI Emoji" font-size="20px" fill="#1e1e1e" text-anchor="middle" style="white-space: pre;" direction="ltr" dominant-baseline="text-before-edge">编译时</text></g><g stroke-linecap="round" transform="translate(303.8818359375 213.599609375) rotate(0 154.6640625 27.892578125)"><path d="M3.71 3.23 C3.71 3.23, 3.71 3.23, 3.71 3.23 M3.71 3.23 C3.71 3.23, 3.71 3.23, 3.71 3.23 M3.45 9.62 C5.27 8.18, 6.34 5.71, 9.36 2.83 M3.45 9.62 C4.96 8.24, 6.32 5.83, 9.36 2.83 M2.53 16.78 C6.32 11.17, 9.19 7.73, 15.65 1.68 M2.53 16.78 C5.13 13.5, 7.69 9.14, 15.65 1.68 M2.93 22.42 C11.25 15.36, 16.32 6.11, 21.3 1.29 M2.93 22.42 C10.25 14.39, 15.95 8.09, 21.3 1.29 M3.32 28.06 C7.89 19.2, 14.07 13.49, 26.28 1.65 M3.32 28.06 C11.88 18.77, 17.89 9.53, 26.28 1.65 M3.06 34.46 C14.06 24.27, 25.37 8.93, 31.93 1.25 M3.06 34.46 C9.74 26.09, 16.38 18.96, 31.93 1.25 M3.46 40.1 C12.53 28.29, 26.4 13.21, 36.91 1.61 M3.46 40.1 C15 26.5, 27.7 14.03, 36.91 1.61 M1.23 48.77 C11.82 36.15, 24.29 22.23, 42.56 1.22 M1.23 48.77 C16.44 30.5, 31.64 13.43, 42.56 1.22 M4.24 51.39 C12.12 39.55, 21.82 30.23, 47.54 1.58 M4.24 51.39 C18.36 33.7, 35.01 17.34, 47.54 1.58 M6.61 54.77 C21.47 41.68, 32.26 26.47, 52.53 1.94 M6.61 54.77 C21.51 38.43, 36.36 20.98, 52.53 1.94 M10.94 55.88 C23.03 41.39, 32.68 28.37, 58.17 1.55 M10.94 55.88 C29.61 35.6, 47.34 14.37, 58.17 1.55 M16.58 55.49 C27.99 41.37, 42.51 27.28, 63.16 1.91 M16.58 55.49 C32.26 36.06, 49.68 17.84, 63.16 1.91 M21.57 55.85 C31.84 41.47, 48.12 25.98, 68.8 1.51 M21.57 55.85 C34.07 41.58, 44.37 29.15, 68.8 1.51 M26.56 56.21 C37.84 40.81, 50.06 30.27, 73.79 1.87 M26.56 56.21 C40.84 39.54, 56.51 21.93, 73.79 1.87 M32.2 55.82 C44.77 40.41, 59.86 22.82, 79.43 1.48 M32.2 55.82 C49.9 36.12, 65.07 17.86, 79.43 1.48 M37.19 56.18 C48.31 42.4, 61.24 29.16, 84.42 1.84 M37.19 56.18 C52.09 38.06, 65.82 23.27, 84.42 1.84 M42.83 55.78 C60.14 38.97, 74.09 20.57, 90.07 1.44 M42.83 55.78 C53.7 42.55, 64.44 32.43, 90.07 1.44 M47.82 56.14 C63.38 40.24, 78.28 24.43, 95.05 1.8 M47.82 56.14 C56.56 44.26, 66.43 34.66, 95.05 1.8 M53.46 55.75 C68.49 38.47, 79.72 23.61, 100.7 1.41 M53.46 55.75 C71.44 33.88, 89.5 12.51, 100.7 1.41 M58.45 56.11 C71.96 39.32, 84.28 24.56, 105.68 1.77 M58.45 56.11 C74.19 36.41, 91.07 18.78, 105.68 1.77 M64.09 55.71 C75.16 41.77, 89.09 27.78, 111.33 1.37 M64.09 55.71 C81.67 36.79, 97.39 17.64, 111.33 1.37 M69.08 56.07 C86.64 33.49, 105.79 12.61, 116.31 1.73 M69.08 56.07 C80.95 41.92, 93.77 28.02, 116.31 1.73 M74.72 55.68 C84.29 43.34, 95.88 30.67, 121.96 1.34 M74.72 55.68 C93.43 34.77, 110.97 15.02, 121.96 1.34 M79.71 56.04 C92.46 38.69, 107.02 24.38, 126.94 1.7 M79.71 56.04 C93.73 38.52, 109.13 21.3, 126.94 1.7 M85.35 55.64 C96.6 43.23, 109.55 28.19, 132.59 1.3 M85.35 55.64 C98.87 40.07, 112.06 24.22, 132.59 1.3 M90.34 56 C105.4 39.95, 116.37 23.59, 137.57 1.66 M90.34 56 C105.09 40.27, 118.12 23.58, 137.57 1.66 M95.98 55.61 C106.36 40.09, 119.46 29.28, 142.56 2.02 M95.98 55.61 C109.86 38.84, 124.35 21.59, 142.56 2.02 M100.97 55.97 C109.53 46.46, 120.99 33.91, 148.2 1.63 M100.97 55.97 C110.91 43.1, 122.35 32.52, 148.2 1.63 M106.61 55.57 C122.35 37.85, 138.56 17.46, 153.19 1.99 M106.61 55.57 C124.87 35.52, 141.96 13.86, 153.19 1.99 M111.6 55.93 C123.5 39.33, 138.36 24.64, 158.83 1.59 M111.6 55.93 C123.41 41.83, 136.3 26.89, 158.83 1.59 M117.24 55.54 C134.36 33.19, 153.56 14.47, 163.82 1.95 M117.24 55.54 C131.74 39.23, 146.02 24.11, 163.82 1.95 M122.23 55.9 C134.42 41.8, 147.67 29.85, 169.46 1.56 M122.23 55.9 C137.26 38.79, 153.81 20.42, 169.46 1.56 M127.21 56.26 C144.72 35.8, 160.63 16.62, 174.45 1.92 M127.21 56.26 C143.73 38.24, 158.19 19.75, 174.45 1.92 M132.86 55.86 C149.44 38.13, 165.34 19.49, 180.09 1.53 M132.86 55.86 C143.66 43.02, 154.36 32.62, 180.09 1.53 M137.84 56.22 C150.77 44.61, 160.74 28.46, 185.08 1.89 M137.84 56.22 C154.73 35, 173.03 14.91, 185.08 1.89 M143.49 55.83 C158.32 40.61, 167.68 26.16, 190.72 1.49 M143.49 55.83 C157.12 40.64, 169.48 26.06, 190.72 1.49 M148.47 56.19 C165.19 33.69, 185.04 15.83, 195.71 1.85 M148.47 56.19 C163.24 37.9, 178.9 22.87, 195.71 1.85 M154.12 55.8 C168.71 40.67, 182.03 24.47, 201.35 1.46 M154.12 55.8 C171.82 36.11, 188.53 16.48, 201.35 1.46 M159.1 56.16 C169 46.53, 177.52 31.91, 206.34 1.82 M159.1 56.16 C174.68 37.08, 191.29 17.56, 206.34 1.82 M164.75 55.76 C180.3 37.94, 194.53 21, 211.98 1.42 M164.75 55.76 C175.81 44.65, 185.13 32.92, 211.98 1.42 M169.73 56.12 C177.95 47.01, 187.34 32.7, 216.97 1.78 M169.73 56.12 C182.69 41.8, 195.74 25.58, 216.97 1.78 M175.38 55.73 C185.61 43.59, 196.94 33.31, 222.61 1.39 M175.38 55.73 C192.72 35.74, 211.4 14.35, 222.61 1.39 M180.36 56.09 C192.81 39.21, 208.29 22.29, 227.6 1.75 M180.36 56.09 C193.58 39.82, 206.78 24.71, 227.6 1.75 M186.01 55.69 C201.34 38.9, 213.52 21.61, 232.59 2.11 M186.01 55.69 C195.46 42.89, 207.65 30.81, 232.59 2.11 M190.99 56.05 C203.32 42.47, 216.89 27.66, 238.23 1.71 M190.99 56.05 C205.12 41.72, 219.75 24.26, 238.23 1.71 M196.64 55.66 C208.54 39.65, 222.01 23.97, 243.22 2.07 M196.64 55.66 C210.84 38.73, 226.35 20.92, 243.22 2.07 M201.62 56.02 C209.97 44.11, 221.83 32.21, 248.86 1.68 M201.62 56.02 C211.77 44.7, 222.09 32.49, 248.86 1.68 M207.27 55.62 C219.28 41.19, 234.99 23.05, 253.85 2.04 M207.27 55.62 C221.38 38.45, 235.95 22.16, 253.85 2.04 M212.25 55.98 C229.17 36.06, 244.34 17.82, 259.49 1.64 M212.25 55.98 C227.08 38.06, 241.97 21.93, 259.49 1.64 M217.24 56.34 C233.89 37.48, 254.58 15.09, 264.48 2 M217.24 56.34 C234.14 35.67, 253.05 16.82, 264.48 2 M222.88 55.95 C236.84 40.32, 251.38 23.23, 270.12 1.61 M222.88 55.95 C234.93 41.22, 249.03 26.2, 270.12 1.61 M227.87 56.31 C244.27 38.5, 260.62 20.79, 275.11 1.97 M227.87 56.31 C245.89 36.11, 264.33 15.29, 275.11 1.97 M233.51 55.91 C244.77 42.95, 253.29 31.37, 280.75 1.58 M233.51 55.91 C247.38 39.94, 260.14 26.47, 280.75 1.58 M238.5 56.27 C250.46 43.51, 257.39 31.2, 285.74 1.94 M238.5 56.27 C257.45 34.76, 275.69 14.77, 285.74 1.94 M244.14 55.88 C252.63 45.36, 262.81 34.72, 291.38 1.54 M244.14 55.88 C260.99 38.23, 276.7 19.46, 291.38 1.54 M249.13 56.24 C267.21 33.87, 286.7 14.86, 296.37 1.9 M249.13 56.24 C264.7 39.83, 278.29 22.46, 296.37 1.9 M254.77 55.85 C273.17 36.01, 288.75 13.83, 301.35 2.26 M254.77 55.85 C271.9 34.61, 290.17 14.49, 301.35 2.26 M259.76 56.21 C278.43 36.95, 293.86 18.09, 305.03 4.13 M259.76 56.21 C268.23 44.71, 278.08 35.49, 305.03 4.13 M265.4 55.81 C276.05 42.52, 288.24 28.48, 308.7 6 M265.4 55.81 C282.71 35.41, 299.36 15.72, 308.7 6 M270.39 56.17 C285 38.53, 295.64 26.4, 310.41 10.13 M270.39 56.17 C280.82 44.95, 290.88 33, 310.41 10.13 M276.03 55.78 C287.65 41.42, 302.7 26.38, 310.81 15.78 M276.03 55.78 C283.57 47.1, 291.31 37.12, 310.81 15.78 M281.02 56.14 C291.84 43.87, 304.56 29.6, 311.2 21.42 M281.02 56.14 C293.1 44.16, 302.68 31.69, 311.2 21.42 M286.66 55.74 C294.04 45.55, 300.61 40.25, 310.94 27.82 M286.66 55.74 C295.48 44.91, 303.97 33.73, 310.94 27.82 M291.65 56.1 C296.38 50.14, 302.99 45.46, 311.33 33.46 M291.65 56.1 C298.41 49.29, 304.91 40.85, 311.33 33.46 M296.64 56.46 C298.47 52.29, 303.56 48.93, 311.07 39.86 M296.64 56.46 C299.76 53.15, 304.18 48.58, 311.07 39.86 M302.28 56.07 C305.45 52.95, 307.31 48.72, 310.81 46.26 M302.28 56.07 C305.26 52.94, 307.94 49.92, 310.81 46.26" stroke="#ffc9c9" stroke-width="0.5" fill="none"></path><path d="M13.95 0 M13.95 0 C113.35 0.51, 213.79 1.19, 295.38 0 M13.95 0 C104.1 0.38, 192.69 1.04, 295.38 0 M295.38 0 C306.01 0.72, 307.73 3.67, 309.33 13.95 M295.38 0 C306.35 0.09, 309.6 5.59, 309.33 13.95 M309.33 13.95 C307.23 22.28, 308.27 34.13, 309.33 41.84 M309.33 13.95 C308.75 24.28, 310.38 34.08, 309.33 41.84 M309.33 41.84 C307.82 52.32, 304.19 55.11, 295.38 55.79 M309.33 41.84 C308.11 51.69, 304.54 56.36, 295.38 55.79 M295.38 55.79 C234.92 56.26, 175.26 57.38, 13.95 55.79 M295.38 55.79 C198.31 55.85, 100.21 55.66, 13.95 55.79 M13.95 55.79 C5.16 56.07, -0.54 49.36, 0 41.84 M13.95 55.79 C3.44 57.89, 0.86 52.91, 0 41.84 M0 41.84 C0.67 31.64, 0.13 22.53, 0 13.95 M0 41.84 C-0.28 32.81, -0.34 25.03, 0 13.95 M0 13.95 C-0.32 5.83, 4.17 1.93, 13.95 0 M0 13.95 C0.19 4.58, 6.26 2.22, 13.95 0" stroke="#e03131" stroke-width="1" fill="none"></path></g><g transform="translate(388.5458984375 229.4921875) rotate(0 70 12)"><text x="70" y="0" font-family="Cascadia, Segoe UI Emoji" font-size="20px" fill="#1e1e1e" text-anchor="middle" style="white-space: pre;" direction="ltr" dominant-baseline="text-before-edge">编译时类型检查</text></g><g stroke-linecap="round" transform="translate(143.1552734375 304.306640625) rotate(0 57.072265625 27.349609375)"><path d="M1.77 5.52 C1.77 5.52, 1.77 5.52, 1.77 5.52 M1.77 5.52 C1.77 5.52, 1.77 5.52, 1.77 5.52 M1.51 11.91 C3.43 8.46, 6.17 6.42, 8.07 4.37 M1.51 11.91 C3.72 9.06, 6.73 6.58, 8.07 4.37 M1.91 17.56 C3.63 13.29, 9.84 9.53, 15.68 1.71 M1.91 17.56 C7.5 12.04, 11.59 7.68, 15.68 1.71 M1.64 23.95 C9.41 15.54, 17.2 10.19, 20.67 2.07 M1.64 23.95 C5.75 17.7, 11.29 12.57, 20.67 2.07 M1.38 30.35 C7.55 24.32, 13.84 20.13, 26.31 1.67 M1.38 30.35 C8.56 23.58, 14.49 16.17, 26.31 1.67 M1.78 35.99 C11.71 21.57, 25.95 8.9, 31.3 2.03 M1.78 35.99 C10.99 25.72, 20.26 14.95, 31.3 2.03 M1.52 42.39 C14.67 27.59, 24.76 13.4, 36.94 1.64 M1.52 42.39 C10.88 30.87, 21.84 19.18, 36.94 1.64 M3.22 46.53 C15.56 32.46, 24.74 19.92, 41.93 2 M3.22 46.53 C11.05 37.85, 20.52 26.69, 41.93 2 M4.27 51.41 C16.97 38.33, 26.83 22.95, 47.57 1.6 M4.27 51.41 C15.29 36.98, 26.96 25.5, 47.57 1.6 M7.29 54.04 C25.26 32.09, 42.91 13.19, 52.56 1.96 M7.29 54.04 C23.61 34.72, 40.23 15.56, 52.56 1.96 M11.62 55.15 C23.02 46.27, 31.42 35.44, 58.2 1.57 M11.62 55.15 C29.56 34.55, 47.68 12.21, 58.2 1.57 M15.95 56.27 C31.85 39.72, 46.36 20.09, 63.19 1.93 M15.95 56.27 C29.48 40.8, 43.84 23.07, 63.19 1.93 M20.94 56.63 C34.51 40.55, 51.7 24, 68.83 1.53 M20.94 56.63 C33.82 41.92, 47.76 26.27, 68.83 1.53 M26.58 56.23 C36.24 45.68, 45.94 32.93, 73.82 1.9 M26.58 56.23 C44.51 34.98, 62.3 13.86, 73.82 1.9 M31.57 56.59 C49.51 36.49, 64.18 19.98, 79.46 1.5 M31.57 56.59 C42.28 44.36, 54.34 31.38, 79.46 1.5 M37.21 56.2 C51.61 40.43, 67.59 24.13, 84.45 1.86 M37.21 56.2 C47.38 44.39, 55.74 34.11, 84.45 1.86 M42.2 56.56 C57.98 36, 78.73 17.7, 90.09 1.47 M42.2 56.56 C51.29 45.24, 61.8 34.79, 90.09 1.47 M47.84 56.17 C61.88 37.29, 80.51 16.48, 95.08 1.83 M47.84 56.17 C57.86 44.91, 68.26 33.87, 95.08 1.83 M52.83 56.53 C65.08 46.14, 73.91 32.52, 101.38 0.68 M52.83 56.53 C65.72 42.96, 79.03 28.04, 101.38 0.68 M58.47 56.13 C69.21 44.11, 78.41 31.9, 105.71 1.79 M58.47 56.13 C68.24 43.87, 79.29 32.29, 105.71 1.79 M63.46 56.49 C76.68 40.64, 87.26 28.74, 110.04 2.91 M63.46 56.49 C78.22 41.5, 91.47 24.88, 110.04 2.91 M68.45 56.85 C77.13 45.21, 88.31 33.73, 113.06 5.53 M68.45 56.85 C80.94 42.08, 94.81 25.77, 113.06 5.53 M74.09 56.46 C88.12 41.99, 100.13 29.39, 114.11 10.42 M74.09 56.46 C86.37 41.92, 97.91 26.83, 114.11 10.42 M79.08 56.82 C89 47.1, 98.02 33.76, 113.85 16.82 M79.08 56.82 C89.93 43.69, 101.25 30.88, 113.85 16.82 M84.72 56.42 C96.39 44.59, 108.8 29.99, 114.24 22.46 M84.72 56.42 C94.21 45.35, 103.81 35.08, 114.24 22.46 M89.71 56.78 C96.52 48.57, 104.58 42.43, 113.98 28.86 M89.71 56.78 C98.93 46.46, 108.11 34.27, 113.98 28.86 M95.35 56.39 C99.75 50.94, 104.78 45.49, 114.38 34.5 M95.35 56.39 C100.06 50.47, 106.13 43.28, 114.38 34.5 M101.65 55.24 C104.39 48.42, 111.77 43.72, 114.12 40.9 M101.65 55.24 C104.77 52.39, 106.1 48.71, 114.12 40.9 M109.26 52.58 C113.16 49.07, 115.48 46.31, 117.13 43.52 M109.26 52.58 C112.31 49.12, 115.19 45.05, 117.13 43.52" stroke="#ffc9c9" stroke-width="0.5" fill="none"></path><path d="M13.67 0 M13.67 0 C35.22 0.63, 58.93 -1.24, 100.47 0 M13.67 0 C45.35 0.73, 75.51 -0.14, 100.47 0 M100.47 0 C107.6 1.41, 113.77 4.46, 114.14 13.67 M100.47 0 C108.3 1.64, 115.22 4.15, 114.14 13.67 M114.14 13.67 C114.22 22.86, 114.25 35.08, 114.14 41.02 M114.14 13.67 C114.02 23.47, 113.99 33.33, 114.14 41.02 M114.14 41.02 C116.02 49.46, 110.83 53.41, 100.47 54.7 M114.14 41.02 C112.67 50.21, 108.33 53.4, 100.47 54.7 M100.47 54.7 C78.37 55.67, 53.54 53.89, 13.67 54.7 M100.47 54.7 C82.55 55.24, 64.38 54.91, 13.67 54.7 M13.67 54.7 C6.52 53.12, 1.15 49.62, 0 41.02 M13.67 54.7 C6.08 52.53, 2.1 51.71, 0 41.02 M0 41.02 C1.39 36.03, -0.34 26.56, 0 13.67 M0 41.02 C-1.15 29.95, -1.15 20.31, 0 13.67 M0 13.67 C-0.52 4.47, 3.67 1.88, 13.67 0 M0 13.67 C-0.64 2.6, 4.42 -0.65, 13.67 0" stroke="#2f9e44" stroke-width="1" fill="none"></path></g><g transform="translate(170.2275390625 319.65625) rotate(0 30 12)"><text x="30" y="0" font-family="Cascadia, Segoe UI Emoji" font-size="20px" fill="#2f9e44" text-anchor="middle" style="white-space: pre;" direction="ltr" dominant-baseline="text-before-edge">运行时</text></g><g stroke-linecap="round" transform="translate(304.4892578125 306.75390625) rotate(0 157.5 25)"><path d="M3.33 2.89 C3.33 2.89, 3.33 2.89, 3.33 2.89 M3.33 2.89 C3.33 2.89, 3.33 2.89, 3.33 2.89 M0.44 12.31 C3.66 9.38, 3.51 6.53, 10.28 0.99 M0.44 12.31 C2.36 9.21, 5.14 5.82, 10.28 0.99 M0.18 18.71 C4.44 12.52, 6.46 11.86, 14.61 2.1 M0.18 18.71 C4.56 13.75, 7.87 10.17, 14.61 2.1 M0.57 24.35 C4.48 18.73, 11.71 11.17, 20.26 1.71 M0.57 24.35 C3.57 19.08, 8.21 15.61, 20.26 1.71 M0.31 30.75 C6.8 20.7, 13.28 14.31, 25.24 2.07 M0.31 30.75 C9.64 21.77, 16.41 10.53, 25.24 2.07 M0.71 36.39 C6.92 27.02, 15.41 21.75, 30.89 1.67 M0.71 36.39 C9.69 27.14, 17.2 16.93, 30.89 1.67 M1.1 42.03 C9.82 32.82, 20.96 20.96, 35.87 2.03 M1.1 42.03 C12.16 29.91, 22.68 16.6, 35.87 2.03 M3.47 45.41 C10.84 34.39, 20.75 23.6, 41.52 1.64 M3.47 45.41 C17.73 28.14, 33.31 12.23, 41.52 1.64 M5.83 48.79 C17.97 35.51, 32.9 19.52, 46.5 2 M5.83 48.79 C15.07 38.56, 23.24 29.37, 46.5 2 M10.16 49.91 C20.66 39.23, 28.8 27.62, 52.15 1.61 M10.16 49.91 C23.02 33.94, 36.4 19.75, 52.15 1.61 M15.15 50.27 C32.65 32.18, 48.11 13.04, 57.13 1.97 M15.15 50.27 C31.58 32.43, 47.91 14.13, 57.13 1.97 M20.79 49.87 C34.71 33.76, 50.87 16.8, 62.12 2.33 M20.79 49.87 C36.79 32.76, 52.29 13.04, 62.12 2.33 M25.78 50.23 C39.65 31.42, 56.93 14.84, 67.76 1.93 M25.78 50.23 C40.38 32.5, 57.49 14.13, 67.76 1.93 M31.42 49.84 C46.43 34.45, 59.45 18.91, 72.75 2.29 M31.42 49.84 C42.62 37.41, 52.71 26.16, 72.75 2.29 M36.41 50.2 C45.46 36.55, 57.57 25.11, 78.39 1.9 M36.41 50.2 C49.91 34.77, 63.85 18.63, 78.39 1.9 M42.05 49.8 C54 32.66, 72.19 17.49, 83.38 2.26 M42.05 49.8 C54.48 35.99, 65.89 22.49, 83.38 2.26 M47.04 50.16 C56.16 38.62, 71.05 23.4, 89.02 1.86 M47.04 50.16 C59.87 36.12, 72.98 19.47, 89.02 1.86 M52.02 50.52 C63.87 34.47, 80.26 19.06, 94.01 2.22 M52.02 50.52 C65.67 33.15, 80.58 17.38, 94.01 2.22 M57.67 50.13 C71.87 31.26, 87 15.04, 99.65 1.83 M57.67 50.13 C72.83 31.5, 89.08 13.04, 99.65 1.83 M62.65 50.49 C71.45 38.05, 84.35 25.47, 104.64 2.19 M62.65 50.49 C73.01 39.1, 83.42 26.3, 104.64 2.19 M68.3 50.09 C77.67 38.53, 86.82 30.3, 110.28 1.79 M68.3 50.09 C83.14 32.39, 98.93 13.3, 110.28 1.79 M73.28 50.45 C84.09 38.34, 95.28 23.99, 115.27 2.15 M73.28 50.45 C88.21 33.46, 102.95 17.42, 115.27 2.15 M78.93 50.06 C90.79 36.43, 104.65 22.3, 120.91 1.76 M78.93 50.06 C91.42 34.99, 105.27 21.75, 120.91 1.76 M83.91 50.42 C98.8 32.25, 114.18 16.22, 125.9 2.12 M83.91 50.42 C95.6 37.88, 106 25.89, 125.9 2.12 M89.56 50.03 C106.41 30.73, 122.58 11.72, 131.54 1.72 M89.56 50.03 C101.9 34.74, 114.07 20.85, 131.54 1.72 M94.54 50.39 C107.09 35.98, 117.41 23.85, 136.53 2.08 M94.54 50.39 C109.08 32.98, 125.82 16.12, 136.53 2.08 M100.19 49.99 C111.37 36.12, 121.38 21.71, 142.17 1.69 M100.19 49.99 C115.22 34.44, 128.6 16.61, 142.17 1.69 M105.17 50.35 C111.86 41.76, 122.81 31.64, 147.16 2.05 M105.17 50.35 C119.71 34.23, 132.71 20.15, 147.16 2.05 M110.82 49.96 C123.72 35.27, 133.19 23.47, 152.15 2.41 M110.82 49.96 C123.05 35.53, 136.16 21.22, 152.15 2.41 M115.8 50.32 C130.93 33.71, 144.2 19.46, 157.79 2.01 M115.8 50.32 C130.79 32.62, 147.61 13.45, 157.79 2.01 M121.45 49.92 C130.85 40.12, 142.31 25.68, 162.78 2.37 M121.45 49.92 C133.91 36.3, 147.24 21.91, 162.78 2.37 M126.43 50.28 C138.5 39.5, 147.94 26.04, 168.42 1.98 M126.43 50.28 C136.08 38.33, 146.21 27.78, 168.42 1.98 M132.08 49.89 C141.18 38.41, 149.04 28.68, 173.41 2.34 M132.08 49.89 C146.92 33.18, 161.43 16.12, 173.41 2.34 M137.06 50.25 C150.3 34.54, 168.55 14.41, 179.05 1.95 M137.06 50.25 C153.06 32.53, 166.75 16.18, 179.05 1.95 M142.71 49.85 C158.2 29.83, 176.25 12.53, 184.04 2.31 M142.71 49.85 C154.86 34.56, 167.3 21.07, 184.04 2.31 M147.69 50.21 C157.07 38.6, 167.31 28.95, 189.68 1.91 M147.69 50.21 C158.88 36.58, 172.62 22.32, 189.68 1.91 M152.68 50.57 C162.46 38.3, 178.49 22.61, 194.67 2.27 M152.68 50.57 C166.03 35.67, 178.85 20.83, 194.67 2.27 M158.32 50.18 C168.97 38.4, 179.6 21.55, 200.31 1.88 M158.32 50.18 C174.26 32.34, 187.6 16.6, 200.31 1.88 M163.31 50.54 C179.77 30.6, 195.4 13.77, 205.3 2.24 M163.31 50.54 C178.58 32.38, 194.47 12.81, 205.3 2.24 M168.95 50.14 C182.65 35.29, 195.36 18.07, 210.94 1.84 M168.95 50.14 C183.59 34.2, 195.42 19.1, 210.94 1.84 M173.94 50.5 C190.64 32.58, 203.86 14.28, 215.93 2.2 M173.94 50.5 C182.06 41.26, 191.22 31.49, 215.93 2.2 M179.58 50.11 C194.06 36.28, 205.37 19.54, 221.57 1.81 M179.58 50.11 C194.02 33.21, 208.61 16.11, 221.57 1.81 M184.57 50.47 C199.69 31.22, 216.77 14.49, 226.56 2.17 M184.57 50.47 C197.93 34.35, 210.87 18.96, 226.56 2.17 M190.21 50.07 C203.68 35.5, 218.2 16.49, 232.2 1.77 M190.21 50.07 C202.53 36.78, 214.19 23.75, 232.2 1.77 M195.2 50.43 C206.9 41.59, 212.78 28.92, 237.19 2.13 M195.2 50.43 C210.32 32.65, 225.36 16.2, 237.19 2.13 M200.84 50.04 C217.92 31.23, 233.47 10.77, 242.83 1.74 M200.84 50.04 C212.07 37.48, 223.19 22.9, 242.83 1.74 M205.83 50.4 C222.59 33.02, 237.5 13.33, 247.82 2.1 M205.83 50.4 C214.57 41.3, 221.64 31.24, 247.82 2.1 M211.47 50.01 C222.28 36.44, 234.61 23.18, 252.81 2.46 M211.47 50.01 C220.31 38.76, 229.89 28.91, 252.81 2.46 M216.46 50.37 C229.14 33.62, 245.77 19.32, 258.45 2.06 M216.46 50.37 C227.32 39.92, 236.29 28.92, 258.45 2.06 M222.1 49.97 C231.41 39.38, 244.63 24.96, 263.44 2.42 M222.1 49.97 C237.08 33.64, 251.1 15.9, 263.44 2.42 M227.09 50.33 C240.25 36.92, 252.36 22.87, 269.08 2.03 M227.09 50.33 C238.03 38.57, 248.87 26.07, 269.08 2.03 M232.73 49.94 C248.61 33.94, 263.46 13.85, 274.07 2.39 M232.73 49.94 C247.6 31.73, 263.14 13.91, 274.07 2.39 M237.72 50.3 C246.29 38.88, 259.53 24.85, 279.71 2 M237.72 50.3 C245.68 39.15, 254 30.98, 279.71 2 M242.71 50.66 C258.62 32.58, 277.8 10.16, 284.7 2.36 M242.71 50.66 C258.35 33.18, 273.74 16.92, 284.7 2.36 M248.35 50.26 C261.71 37.22, 272.98 23.79, 290.34 1.96 M248.35 50.26 C257.48 39.35, 268.29 28.65, 290.34 1.96 M253.34 50.62 C263.84 38.57, 272.42 28.5, 295.33 2.32 M253.34 50.62 C263.53 38.06, 272.77 27.38, 295.33 2.32 M258.98 50.23 C272.82 32.13, 289.07 19.17, 300.97 1.93 M258.98 50.23 C275.86 30.98, 292.74 11.5, 300.97 1.93 M263.97 50.59 C275.78 34.59, 292.43 19.95, 306.61 1.53 M263.97 50.59 C280.04 32.05, 295.81 15.84, 306.61 1.53 M269.61 50.19 C277.13 38.48, 286.11 31.03, 310.29 3.4 M269.61 50.19 C283.88 31.42, 301.02 13.99, 310.29 3.4 M274.6 50.55 C286.77 37.66, 297.68 25, 313.96 5.27 M274.6 50.55 C286.66 37.85, 298.22 22.9, 313.96 5.27 M280.24 50.16 C292.94 36.03, 302.77 25.03, 316.33 8.65 M280.24 50.16 C288.18 41.92, 295.1 33.55, 316.33 8.65 M285.23 50.52 C292.84 42, 299.48 35.05, 316.06 15.05 M285.23 50.52 C290.77 42.71, 298.69 36.98, 316.06 15.05 M290.87 50.12 C300.25 37.3, 308.83 26.65, 316.46 20.69 M290.87 50.12 C298.97 41.56, 307.53 32.24, 316.46 20.69 M295.86 50.48 C304.54 43.04, 309.9 31.4, 316.85 26.33 M295.86 50.48 C302.22 43.4, 308.86 35.61, 316.85 26.33 M301.5 50.09 C308.58 44.43, 313.21 39.16, 316.59 32.73 M301.5 50.09 C305.13 45.53, 307.85 42.22, 316.59 32.73 M305.18 51.96 C308.61 48.82, 312.31 44.01, 315.02 40.64 M305.18 51.96 C306.88 50.16, 309.18 47.57, 315.02 40.64" stroke="#ffc9c9" stroke-width="0.5" fill="none"></path><path d="M12.5 0 M12.5 0 C71.36 -2.3, 132.05 -1.02, 302.5 0 M12.5 0 C110.48 1.09, 207.46 1.37, 302.5 0 M302.5 0 C312.16 -1.84, 315.02 2.32, 315 12.5 M302.5 0 C308.68 -0.92, 314.72 5.56, 315 12.5 M315 12.5 C315.66 23.23, 315.15 28.87, 315 37.5 M315 12.5 C314.41 21.72, 314.88 30.71, 315 37.5 M315 37.5 C313.23 44.09, 311.39 48.82, 302.5 50 M315 37.5 C314.81 44.34, 312.34 51.09, 302.5 50 M302.5 50 C239.5 53.09, 176.92 52.53, 12.5 50 M302.5 50 C211.01 48.76, 120.58 48.65, 12.5 50 M12.5 50 C5.58 49.88, 0.05 46.48, 0 37.5 M12.5 50 C4.33 50.13, 1.58 46.06, 0 37.5 M0 37.5 C-0.74 27.93, 0.98 18.57, 0 12.5 M0 37.5 C0.14 28.49, 0.76 20.51, 0 12.5 M0 12.5 C1.71 5.93, 4.24 -0.35, 12.5 0 M0 12.5 C-0.24 3.39, 2.23 -0.89, 12.5 0" stroke="#2f9e44" stroke-width="1" fill="none"></path></g><g transform="translate(421.9892578125 319.75390625) rotate(0 40 12)"><text x="40" y="0" font-family="Cascadia, Segoe UI Emoji" font-size="20px" fill="#2f9e44" text-anchor="middle" style="white-space: pre;" direction="ltr" dominant-baseline="text-before-edge">类型安全</text></g><g stroke-linecap="round" transform="translate(13.55859375 380.8203125) rotate(0 305.830078125 38.40234375)"><path d="M5.11 4.44 C5.11 4.44, 5.11 4.44, 5.11 4.44 M5.11 4.44 C5.11 4.44, 5.11 4.44, 5.11 4.44 M3.54 12.35 C7.11 10.5, 8.58 6.21, 12.07 2.54 M3.54 12.35 C5.79 9.26, 9.07 7.07, 12.07 2.54 M1.96 20.26 C8.71 13.39, 13.68 6.88, 19.68 -0.12 M1.96 20.26 C9.05 11.39, 15.55 4.97, 19.68 -0.12 M1.7 26.66 C8.88 19.89, 12.6 12.76, 24.66 0.24 M1.7 26.66 C8.24 17.9, 17.45 8.4, 24.66 0.24 M2.1 32.3 C12.82 21.18, 22.62 8.02, 30.31 -0.15 M2.1 32.3 C12.67 19.7, 23.8 7.43, 30.31 -0.15 M1.84 38.7 C10.45 30.06, 19.71 17.55, 35.29 0.21 M1.84 38.7 C12.88 26.85, 22.93 13.85, 35.29 0.21 M2.23 44.34 C13.07 28.67, 26.82 15.38, 40.28 0.57 M2.23 44.34 C15.5 29.58, 29.81 12.51, 40.28 0.57 M2.62 49.98 C11.62 38.6, 23.68 26.29, 45.92 0.17 M2.62 49.98 C11.86 40.05, 21.04 29.51, 45.92 0.17 M2.36 56.38 C14.39 39.65, 30.59 23.85, 50.91 0.53 M2.36 56.38 C13.11 44.56, 23.17 32.7, 50.91 0.53 M2.76 62.02 C21.23 41.24, 39.47 18.49, 56.55 0.14 M2.76 62.02 C22.92 39.18, 41.45 16.95, 56.55 0.14 M3.15 67.67 C26.21 40.14, 50.06 14.88, 61.54 0.5 M3.15 67.67 C17.98 50.93, 32.72 34.41, 61.54 0.5 M5.52 71.04 C25.85 46.41, 47.63 21.61, 67.18 0.1 M5.52 71.04 C20.69 51.75, 38.68 34.18, 67.18 0.1 M7.88 74.42 C32.53 43.4, 58.49 14.02, 72.17 0.46 M7.88 74.42 C33.53 46.95, 58.34 17.94, 72.17 0.46 M12.21 75.54 C33.37 52.64, 54.21 27.37, 77.81 0.07 M12.21 75.54 C36.38 46.84, 59.72 18.96, 77.81 0.07 M15.88 77.41 C38.33 51.47, 59.85 27.29, 82.8 0.43 M15.88 77.41 C37.62 51.45, 58.42 26.98, 82.8 0.43 M20.87 77.77 C36.53 61.88, 52.03 44.84, 88.44 0.03 M20.87 77.77 C38 57.68, 56.15 37.24, 88.44 0.03 M26.51 77.37 C45.88 54.57, 63.95 35.85, 93.43 0.39 M26.51 77.37 C52.68 47.17, 77.67 19.06, 93.43 0.39 M31.5 77.73 C53.96 51.88, 75.11 24.86, 99.08 0 M31.5 77.73 C53.23 52.48, 75.86 25.6, 99.08 0 M37.14 77.34 C52.52 60.94, 68.08 39.14, 104.06 0.36 M37.14 77.34 C55.65 56.52, 75.54 33.35, 104.06 0.36 M42.13 77.7 C60.57 53.13, 80.59 30.48, 109.71 -0.04 M42.13 77.7 C58.66 56.52, 77.52 36.66, 109.71 -0.04 M47.77 77.3 C60.85 63.38, 76.09 43.83, 114.69 0.32 M47.77 77.3 C71.97 48.5, 98.28 20.86, 114.69 0.32 M52.76 77.66 C67.65 61.3, 86.14 41.11, 120.34 -0.07 M52.76 77.66 C76.2 50.02, 100.76 24.33, 120.34 -0.07 M58.4 77.27 C81.02 52.03, 104.48 27.59, 125.32 0.29 M58.4 77.27 C81.22 50.31, 106.57 22.98, 125.32 0.29 M63.39 77.63 C77.78 62.98, 91.73 44.36, 130.97 -0.1 M63.39 77.63 C87.48 48.71, 113 19.02, 130.97 -0.1 M69.03 77.24 C93.6 48.87, 119.73 20.22, 135.95 0.26 M69.03 77.24 C95.39 46.98, 121.49 16.45, 135.95 0.26 M74.02 77.6 C98.87 48.19, 124.14 17.1, 140.94 0.62 M74.02 77.6 C97.21 48.67, 121.75 22.35, 140.94 0.62 M79.66 77.2 C104.13 45.81, 131.75 19.76, 146.58 0.22 M79.66 77.2 C94.01 62.35, 107.3 45.57, 146.58 0.22 M84.65 77.56 C103.94 56.84, 122.55 33.15, 151.57 0.58 M84.65 77.56 C97.19 62.19, 111.56 47.13, 151.57 0.58 M90.29 77.17 C110.57 53.89, 127.8 32.22, 157.21 0.19 M90.29 77.17 C113.81 49.3, 138.17 20.41, 157.21 0.19 M95.28 77.53 C115.13 54.98, 134.08 32.82, 162.2 0.55 M95.28 77.53 C110.32 61.92, 123.86 44.76, 162.2 0.55 M100.27 77.89 C118.71 54.62, 137.66 36.22, 167.84 0.15 M100.27 77.89 C127.09 48.19, 153.66 17.17, 167.84 0.15 M105.91 77.49 C119.41 60.17, 133.72 47.34, 172.83 0.51 M105.91 77.49 C120.95 60.73, 134.13 45.18, 172.83 0.51 M110.9 77.85 C125.26 62.44, 140.95 44.21, 178.47 0.12 M110.9 77.85 C128.65 56.55, 146.9 35.73, 178.47 0.12 M116.54 77.46 C128.97 63.76, 146.1 44.48, 183.46 0.48 M116.54 77.46 C130.31 60.41, 145.97 44.02, 183.46 0.48 M121.53 77.82 C137.02 60.5, 150.56 42.9, 189.1 0.08 M121.53 77.82 C145.4 52.22, 167.41 26.23, 189.1 0.08 M127.17 77.42 C149.01 50.02, 170.53 25.62, 194.09 0.44 M127.17 77.42 C149.64 51.68, 173.43 24.27, 194.09 0.44 M132.16 77.78 C152.09 54.72, 171.35 30.94, 199.73 0.05 M132.16 77.78 C157.35 48.43, 184.24 19.39, 199.73 0.05 M137.8 77.39 C155.45 55.87, 171.98 37.19, 204.72 0.41 M137.8 77.39 C161.36 50.43, 184.83 25.02, 204.72 0.41 M142.79 77.75 C165.1 53.06, 188.31 26.22, 210.36 0.01 M142.79 77.75 C165.87 50.97, 187.73 24.94, 210.36 0.01 M148.43 77.35 C162.21 62.97, 176.55 45.41, 215.35 0.37 M148.43 77.35 C164.64 60.05, 179.13 41.91, 215.35 0.37 M153.42 77.71 C171.92 60.58, 186.05 41.15, 220.99 -0.02 M153.42 77.71 C169.55 60.81, 184.64 42.06, 220.99 -0.02 M159.06 77.32 C179.24 54.18, 202.72 26.73, 225.98 0.34 M159.06 77.32 C175.09 58.89, 192.91 38.28, 225.98 0.34 M164.05 77.68 C184.65 57.31, 204.06 33.2, 231.62 -0.06 M164.05 77.68 C191.17 45.89, 217.41 15.84, 231.62 -0.06 M169.69 77.29 C186.69 58.08, 203.41 35.37, 236.61 0.31 M169.69 77.29 C193.54 49.05, 217.71 22.45, 236.61 0.31 M174.68 77.65 C194.29 57.02, 211.88 34.34, 241.6 0.67 M174.68 77.65 C189.02 60.05, 205.44 41.38, 241.6 0.67 M180.32 77.25 C204.75 45.58, 233.42 19.29, 247.24 0.27 M180.32 77.25 C200.31 53, 219.01 30.64, 247.24 0.27 M185.31 77.61 C200.71 57.99, 217.64 38, 252.23 0.63 M185.31 77.61 C206.25 52.68, 228.9 27.67, 252.23 0.63 M190.95 77.22 C206.52 57.38, 221.97 39.11, 257.87 0.24 M190.95 77.22 C212.49 52.71, 232.29 30.26, 257.87 0.24 M195.94 77.58 C221.15 50.18, 242.01 23.97, 262.86 0.6 M195.94 77.58 C215.85 55.16, 235.21 33.92, 262.86 0.6 M200.93 77.94 C213.44 60.4, 229.97 45.52, 268.5 0.2 M200.93 77.94 C219.87 57.82, 237 37.06, 268.5 0.2 M206.57 77.54 C230.6 50.85, 252.51 27.08, 273.49 0.56 M206.57 77.54 C226.44 55.72, 244.27 33.73, 273.49 0.56 M211.56 77.9 C228.85 60.07, 244.1 40.23, 279.13 0.17 M211.56 77.9 C232 52.51, 253.73 26.96, 279.13 0.17 M217.2 77.51 C237.88 54.18, 259.57 29.72, 284.12 0.53 M217.2 77.51 C239.99 50.65, 263.11 24.41, 284.12 0.53 M222.19 77.87 C236.3 62.34, 251.89 46.1, 289.76 0.13 M222.19 77.87 C238.7 59.24, 254.75 40.69, 289.76 0.13 M227.83 77.47 C252.11 49.74, 277.65 18.81, 294.75 0.49 M227.83 77.47 C244.48 57.59, 261.83 38.04, 294.75 0.49 M232.82 77.83 C253.32 56.43, 272.67 31.66, 300.39 0.1 M232.82 77.83 C254.67 53.7, 274.6 29.7, 300.39 0.1 M238.46 77.44 C263.16 48.9, 290.89 19.87, 305.38 0.46 M238.46 77.44 C255.66 58.08, 272.27 38.06, 305.38 0.46 M243.45 77.8 C267.93 48.39, 295.03 18.94, 311.02 0.06 M243.45 77.8 C271.53 47.7, 297.55 16.79, 311.02 0.06 M249.09 77.4 C271.55 51.02, 295.15 28.19, 316.01 0.42 M249.09 77.4 C270.84 50.35, 292.89 26.02, 316.01 0.42 M254.08 77.76 C275.48 52.6, 297.86 27.54, 321.65 0.03 M254.08 77.76 C273.92 55.48, 291.93 35.07, 321.65 0.03 M259.72 77.37 C277.43 57.82, 292.28 38.85, 326.64 0.39 M259.72 77.37 C281.58 52.04, 304.19 26.54, 326.64 0.39 M264.71 77.73 C280.82 58.99, 296.8 42.65, 332.28 -0.01 M264.71 77.73 C290.09 50.92, 314.06 22.85, 332.28 -0.01 M270.35 77.34 C288.54 56.39, 308.76 34, 337.27 0.35 M270.35 77.34 C288.06 57.35, 305.11 37.41, 337.27 0.35 M275.34 77.7 C302.93 49.11, 329.91 19.12, 342.26 0.71 M275.34 77.7 C295.9 53.9, 316.16 31.16, 342.26 0.71 M280.98 77.3 C307.49 48.91, 330.92 19.76, 347.9 0.32 M280.98 77.3 C306.1 49.09, 328.81 21.93, 347.9 0.32 M285.97 77.66 C311.5 50.35, 334.42 20.45, 352.89 0.68 M285.97 77.66 C299.49 59.42, 316.25 42.47, 352.89 0.68 M291.61 77.27 C308.15 60.37, 322.64 41.56, 358.53 0.29 M291.61 77.27 C308.14 57.59, 325.36 37.06, 358.53 0.29 M296.6 77.63 C314.44 55.18, 336.53 34.78, 363.52 0.65 M296.6 77.63 C317.17 52.97, 338.25 29.04, 363.52 0.65 M301.58 77.99 C325.14 50.36, 348.68 23.03, 369.16 0.25 M301.58 77.99 C314.96 60.89, 328.64 45.45, 369.16 0.25 M307.23 77.59 C328.64 49.81, 353.31 25.38, 374.15 0.61 M307.23 77.59 C332.66 48.22, 358.82 17.96, 374.15 0.61 M312.21 77.95 C335.64 51.33, 353.76 28.2, 379.79 0.22 M312.21 77.95 C328.35 59.29, 344.22 41.84, 379.79 0.22 M317.86 77.56 C337.76 52.75, 360.83 27.93, 384.78 0.58 M317.86 77.56 C342.15 51.78, 365.54 23.72, 384.78 0.58 M322.84 77.92 C337.93 59.51, 353.53 42.72, 390.42 0.18 M322.84 77.92 C337.12 61.63, 352.8 44.79, 390.42 0.18 M328.49 77.52 C347.67 57, 364.47 38.77, 395.41 0.54 M328.49 77.52 C349.16 53.87, 370.56 29.14, 395.41 0.54 M333.47 77.88 C346.41 61.12, 360.68 44.09, 401.05 0.15 M333.47 77.88 C358.55 48.53, 384.85 19.77, 401.05 0.15 M339.12 77.49 C361.02 49.71, 386.77 22.29, 406.04 0.51 M339.12 77.49 C359.81 55.07, 379.73 31.26, 406.04 0.51 M344.1 77.85 C360.73 57.65, 378.07 38.07, 411.68 0.11 M344.1 77.85 C371.49 47.15, 397.09 17.67, 411.68 0.11 M349.75 77.45 C368.84 54.08, 388.22 34.69, 416.67 0.47 M349.75 77.45 C371.15 52.25, 393.62 27.55, 416.67 0.47 M354.73 77.81 C373.11 58.02, 388.69 39.02, 422.31 0.08 M354.73 77.81 C376.09 54.22, 396.98 27.9, 422.31 0.08 M360.38 77.42 C382.59 55.34, 404.91 29.32, 427.3 0.44 M360.38 77.42 C381.84 51.34, 403.6 26.33, 427.3 0.44 M365.36 77.78 C389.6 51.29, 413.26 23.31, 432.94 0.04 M365.36 77.78 C382.86 59.79, 397.53 41.42, 432.94 0.04 M371.01 77.38 C393.99 50.05, 420.09 19.22, 437.93 0.4 M371.01 77.38 C387.04 59.22, 403.28 41.09, 437.93 0.4 M375.99 77.74 C403.04 47.21, 429.15 17.05, 442.91 0.76 M375.99 77.74 C388.66 62.09, 402.42 45.55, 442.91 0.76 M381.64 77.35 C403.66 53.65, 424.96 29.59, 448.56 0.37 M381.64 77.35 C400.6 55.02, 418.9 34.54, 448.56 0.37 M386.62 77.71 C400.35 59.5, 415.06 42.71, 453.54 0.73 M386.62 77.71 C407.2 54.23, 427.72 30.37, 453.54 0.73 M392.27 77.32 C415.97 52.03, 437.57 22.3, 459.19 0.34 M392.27 77.32 C414.24 52.98, 435.59 27.48, 459.19 0.34 M397.25 77.68 C413.12 59.99, 429.4 40.72, 464.17 0.7 M397.25 77.68 C412.06 61.25, 426.59 43.16, 464.17 0.7 M402.24 78.04 C426.44 47.19, 452.93 19.71, 469.82 0.3 M402.24 78.04 C422.08 55.5, 441.59 33.05, 469.82 0.3 M407.89 77.64 C423.12 59.48, 439.2 41.83, 474.8 0.66 M407.89 77.64 C424.47 59.82, 441.38 40.71, 474.8 0.66 M412.87 78 C441.27 46.89, 465.8 16.35, 480.45 0.27 M412.87 78 C435.49 50.9, 459.05 23.72, 480.45 0.27 M418.52 77.61 C440.14 50.71, 465.96 21.07, 485.43 0.63 M418.52 77.61 C435.64 58.07, 452.09 40.08, 485.43 0.63 M423.5 77.97 C436.8 62.76, 451.2 46.67, 491.08 0.23 M423.5 77.97 C446.66 51.04, 471.13 24.16, 491.08 0.23 M429.15 77.57 C452.42 52.91, 473.19 28.19, 496.06 0.59 M429.15 77.57 C454.31 49.35, 478.77 22.45, 496.06 0.59 M434.13 77.93 C448.75 59.84, 465.64 41.69, 501.71 0.2 M434.13 77.93 C457.07 49.97, 481.4 24.07, 501.71 0.2 M439.78 77.54 C454.65 60.62, 469.34 42.57, 506.69 0.56 M439.78 77.54 C456.25 57.82, 474.24 38.58, 506.69 0.56 M444.76 77.9 C465.19 56.66, 484.39 33.88, 512.34 0.16 M444.76 77.9 C466.71 53.55, 487.03 28.89, 512.34 0.16 M450.41 77.5 C471.5 51.31, 496.54 24.61, 517.32 0.52 M450.41 77.5 C468.14 58.1, 483.53 39.8, 517.32 0.52 M455.39 77.86 C473.25 58.91, 491.56 36.36, 522.97 0.13 M455.39 77.86 C470.7 59.26, 486.08 41.8, 522.97 0.13 M461.04 77.47 C479.84 58.74, 496.64 38.29, 527.95 0.49 M461.04 77.47 C478.65 58.25, 495.33 39.66, 527.95 0.49 M466.02 77.83 C477.83 60.98, 493.52 44.79, 533.6 0.09 M466.02 77.83 C489.48 50.59, 514.07 22.8, 533.6 0.09 M471.67 77.43 C486.78 60.87, 500.24 43.02, 538.58 0.45 M471.67 77.43 C497.94 47.6, 522.4 19.85, 538.58 0.45 M476.65 77.79 C492.28 56.61, 510.7 39.8, 543.57 0.81 M476.65 77.79 C501.8 50.27, 525.85 22.2, 543.57 0.81 M482.3 77.4 C508.69 47.04, 530.9 18.76, 549.21 0.42 M482.3 77.4 C504.31 52.26, 527.34 25.64, 549.21 0.42 M487.28 77.76 C508.24 54.74, 523.74 33.63, 554.2 0.78 M487.28 77.76 C504.78 56.1, 523.49 35.26, 554.2 0.78 M492.93 77.37 C513.45 55.15, 533.86 33.64, 559.84 0.39 M492.93 77.37 C510.97 54.85, 529.55 32.31, 559.84 0.39 M497.91 77.73 C517.8 55.97, 535.1 36.13, 564.83 0.75 M497.91 77.73 C513.47 59.05, 529.47 42.06, 564.83 0.75 M502.9 78.09 C517.71 56.15, 536.51 36.21, 570.47 0.35 M502.9 78.09 C524.48 54.52, 544.48 29.44, 570.47 0.35 M508.54 77.69 C532.15 49.56, 554.83 23.59, 575.46 0.71 M508.54 77.69 C532.4 49.49, 557.05 21.64, 575.46 0.71 M513.53 78.05 C539.48 47.7, 564.15 19.02, 581.1 0.32 M513.53 78.05 C539.56 48.85, 564.97 19.33, 581.1 0.32 M519.17 77.66 C540.51 53.42, 561.97 29.29, 586.09 0.68 M519.17 77.66 C543.12 48.91, 565.58 23.12, 586.09 0.68 M524.16 78.02 C540.84 59.62, 559.27 38.5, 591.73 0.28 M524.16 78.02 C551.27 47.13, 579.11 15.44, 591.73 0.28 M529.8 77.62 C554.87 49.56, 580.13 21.12, 596.72 0.64 M529.8 77.62 C545.17 60.36, 558.31 44.18, 596.72 0.64 M534.79 77.98 C558.21 47.3, 586.41 20.67, 601.05 1.76 M534.79 77.98 C557.93 52.5, 580.83 26.1, 601.05 1.76 M540.43 77.59 C562.94 56.25, 582.69 32.59, 604.73 3.63 M540.43 77.59 C563.31 52.13, 585.36 28.15, 604.73 3.63 M545.42 77.95 C564.74 57.75, 581.04 33.84, 608.4 5.5 M545.42 77.95 C566.38 53.75, 588.8 27.41, 608.4 5.5 M551.06 77.55 C565.03 61.47, 577.72 46.89, 610.11 9.63 M551.06 77.55 C566.46 60.59, 582.16 44.04, 610.11 9.63 M556.05 77.91 C568.82 64.2, 580.97 51.11, 612.47 13.01 M556.05 77.91 C575.72 54.9, 597.09 31.12, 612.47 13.01 M561.69 77.52 C577.31 56.82, 596.55 37.24, 612.21 19.41 M561.69 77.52 C575.82 62.37, 590.01 45.77, 612.21 19.41 M566.68 77.88 C576.38 67.88, 587.41 56.79, 611.95 25.8 M566.68 77.88 C582.93 60.28, 597.12 42.17, 611.95 25.8 M572.32 77.48 C585.69 62.44, 597.06 46.08, 611.69 32.2 M572.32 77.48 C581.71 66.6, 589.11 58.39, 611.69 32.2 M577.31 77.84 C585.1 65.72, 596.27 57.41, 612.08 37.84 M577.31 77.84 C586.87 66.54, 596.67 56.23, 612.08 37.84 M582.95 77.45 C593.48 66.54, 603.82 54.31, 611.82 44.24 M582.95 77.45 C591.26 67.52, 601.34 56.27, 611.82 44.24 M587.94 77.81 C594.57 67.67, 606.47 58.88, 611.56 50.64 M587.94 77.81 C593.79 70.73, 600.47 63.54, 611.56 50.64 M593.58 77.42 C598.73 72.4, 602.43 69.26, 611.95 56.28 M593.58 77.42 C598.55 70.23, 605.34 65.86, 611.95 56.28 M599.23 77.02 C600.72 75.18, 603.71 69.23, 611.69 62.68 M599.23 77.02 C603.45 72.21, 608.76 65.76, 611.69 62.68" stroke="#d0bfff" stroke-width="0.5" fill="none"></path><path d="M19.2 0 M19.2 0 C138.94 1.32, 259.1 1.4, 592.46 0 M19.2 0 C185.99 -1.02, 352.44 -1.02, 592.46 0 M592.46 0 C603.57 1.89, 613.5 5.85, 611.66 19.2 M592.46 0 C605.09 2.21, 611.17 6.17, 611.66 19.2 M611.66 19.2 C613.51 29.88, 612.33 39.72, 611.66 57.6 M611.66 19.2 C611.29 33.73, 611.97 49.44, 611.66 57.6 M611.66 57.6 C609.82 71.16, 607.09 75.75, 592.46 76.8 M611.66 57.6 C613.78 70.76, 606.66 78.84, 592.46 76.8 M592.46 76.8 C402.16 78.39, 212.62 78.31, 19.2 76.8 M592.46 76.8 C431.83 77.82, 272.23 78.06, 19.2 76.8 M19.2 76.8 C6.61 77.32, 1.68 68.41, 0 57.6 M19.2 76.8 C7.97 77.17, 2.02 68.27, 0 57.6 M0 57.6 C-1.44 47.76, 1.51 36.24, 0 19.2 M0 57.6 C0.31 48.54, 0.45 40.9, 0 19.2 M0 19.2 C-0.31 6.31, 7.94 0.93, 19.2 0 M0 19.2 C-2.24 4.38, 7.39 1.87, 19.2 0" stroke="#6741d9" stroke-width="1" fill="none"></path></g><g transform="translate(179.388671875 407.22265625) rotate(0 140 12)"><text x="140" y="0" font-family="Cascadia, Segoe UI Emoji" font-size="20px" fill="#1e1e1e" text-anchor="middle" style="white-space: pre;" direction="ltr" dominant-baseline="text-before-edge">类型安全：做该类型允许的操作</text></g></svg>
